<svg xmlns="http://www.w3.org/2000/svg" fill="none" viewBox="0 144 256 64">
<g opacity="0.6" filter="url(#filter0_d_275_509)">
<path d="M13.4783 207.158H0L24.9535 144H38.5153L63.4271 207.158H49.9488L44.8162 193.6H18.6108L13.4783 207.158ZM22.8254 182.232H40.6434L31.7135 158.821L22.8254 182.232Z" fill="url(#paint0_linear_275_509)" fill-opacity="0.3" shape-rendering="crispEdges"/>
<path d="M80.8895 207.158H70.374L70.374 144H82.35V169.853C84.1026 168.084 86.1334 166.709 88.4424 165.726C90.7792 164.716 93.3107 164.211 96.0369 164.211C99.8759 164.211 103.284 165.165 106.26 167.074C109.237 168.954 111.588 171.551 113.312 174.863C115.037 178.147 115.9 181.895 115.9 186.105C115.9 190.288 115.037 194.035 113.312 197.347C111.588 200.66 109.237 203.27 106.26 205.179C103.284 207.06 99.8759 208 96.0369 208C93.0881 208 90.3619 207.425 87.8582 206.274C85.3823 205.095 83.2541 203.481 81.4737 201.432L80.8895 207.158ZM92.9908 197.179C95.0215 197.179 96.8298 196.702 98.4154 195.747C100.029 194.793 101.295 193.474 102.213 191.789C103.159 190.105 103.631 188.196 103.631 186.063C103.631 183.958 103.159 182.077 102.213 180.421C101.295 178.737 100.029 177.418 98.4154 176.463C96.8298 175.509 95.0215 175.032 92.9908 175.032C91.0713 175.032 89.3187 175.467 87.733 176.337C86.1751 177.207 84.9233 178.4 83.9774 179.916C83.0316 181.432 82.4891 183.172 82.35 185.137V186.989C82.4891 188.954 83.0316 190.709 83.9774 192.253C84.9233 193.768 86.1751 194.975 87.733 195.874C89.2908 196.744 91.0434 197.179 92.9908 197.179Z" fill="url(#paint1_linear_275_509)" fill-opacity="0.3" shape-rendering="crispEdges"/>
<path d="M144.211 208C139.927 208 136.088 207.06 132.694 205.179C129.301 203.27 126.63 200.674 124.683 197.389C122.763 194.077 121.803 190.316 121.803 186.105C121.803 181.923 122.763 178.189 124.683 174.905C126.63 171.593 129.301 168.982 132.694 167.074C136.088 165.165 139.927 164.211 144.211 164.211C148.496 164.211 152.307 165.165 155.645 167.074C159.011 168.982 161.654 171.593 163.573 174.905C165.521 178.189 166.494 181.923 166.494 186.105C166.494 190.316 165.521 194.077 163.573 197.389C161.654 200.674 159.011 203.27 155.645 205.179C152.307 207.06 148.496 208 144.211 208ZM144.17 197.179C146.089 197.179 147.8 196.702 149.302 195.747C150.832 194.765 152.029 193.446 152.891 191.789C153.781 190.105 154.226 188.182 154.226 186.021C154.226 183.944 153.781 182.077 152.891 180.421C152.029 178.765 150.832 177.46 149.302 176.505C147.8 175.523 146.089 175.032 144.17 175.032C142.222 175.032 140.484 175.523 138.954 176.505C137.451 177.46 136.255 178.765 135.365 180.421C134.503 182.077 134.071 183.944 134.071 186.021C134.071 188.182 134.503 190.105 135.365 191.789C136.255 193.446 137.451 194.765 138.954 195.747C140.484 196.702 142.222 197.179 144.17 197.179Z" fill="url(#paint2_linear_275_509)" fill-opacity="0.3" shape-rendering="crispEdges"/>
<path d="M215.796 207.158H206.073L205.656 200.421C204.181 202.891 202.22 204.772 199.772 206.063C197.352 207.354 194.514 208 191.259 208C185.918 208 181.731 206.344 178.699 203.032C175.667 199.719 174.151 195.172 174.151 189.389V165.053H186.127V186.611C186.127 189.895 186.892 192.477 188.422 194.358C189.98 196.211 192.094 197.137 194.764 197.137C197.546 197.137 199.744 196.168 201.358 194.232C202.999 192.267 203.82 189.614 203.82 186.274V165.053H215.796V207.158Z" fill="url(#paint3_linear_275_509)" fill-opacity="0.3" shape-rendering="crispEdges"/>
<path d="M256 206.063C252.801 207.354 249.699 208 246.695 208C243.579 208 240.825 207.34 238.432 206.021C236.068 204.674 234.218 202.807 232.882 200.421C231.547 198.007 230.88 195.228 230.88 192.084V175.832H223.577V165.053H231.505V154.526H242.856V165.053L254.414 165.053V175.832L242.856 175.832V189.895C242.856 192.196 243.481 193.993 244.733 195.284C245.985 196.547 247.543 197.179 249.407 197.179C251.104 197.179 252.759 196.646 254.373 195.579L256 206.063Z" fill="url(#paint4_linear_275_509)" fill-opacity="0.3" shape-rendering="crispEdges"/>
</g>
<defs>
<filter id="filter0_d_275_509" x="-140" y="0" width="556" height="364" filterUnits="userSpaceOnUse" color-interpolation-filters="sRGB">
<feFlood flood-opacity="0" result="BackgroundImageFix"/>
<feColorMatrix in="SourceAlpha" type="matrix" values="0 0 0 0 0 0 0 0 0 0 0 0 0 0 0 0 0 0 127 0" result="hardAlpha"/>
<feOffset dx="10" dy="6"/>
<feGaussianBlur stdDeviation="75"/>
<feComposite in2="hardAlpha" operator="out"/>
<feColorMatrix type="matrix" values="0 0 0 0 0.237314 0 0 0 0 0.121415 0 0 0 0 0.33776 0 0 0 1 0"/>
<feBlend mode="normal" in2="BackgroundImageFix" result="effect1_dropShadow_275_509"/>
<feBlend mode="normal" in="SourceGraphic" in2="effect1_dropShadow_275_509" result="shape"/>
</filter>
<linearGradient id="paint0_linear_275_509" x1="219.894" y1="146.585" x2="95.7974" y2="268.157" gradientUnits="userSpaceOnUse">
<stop offset="0.0264934" stop-color="#412756"/>
<stop offset="0.999538" stop-color="#55376F"/>
</linearGradient>
<linearGradient id="paint1_linear_275_509" x1="219.894" y1="146.585" x2="95.7974" y2="268.157" gradientUnits="userSpaceOnUse">
<stop offset="0.0264934" stop-color="#412756"/>
<stop offset="0.999538" stop-color="#55376F"/>
</linearGradient>
<linearGradient id="paint2_linear_275_509" x1="219.894" y1="146.585" x2="95.7974" y2="268.157" gradientUnits="userSpaceOnUse">
<stop offset="0.0264934" stop-color="#412756"/>
<stop offset="0.999538" stop-color="#55376F"/>
</linearGradient>
<linearGradient id="paint3_linear_275_509" x1="219.894" y1="146.585" x2="95.7974" y2="268.157" gradientUnits="userSpaceOnUse">
<stop offset="0.0264934" stop-color="#412756"/>
<stop offset="0.999538" stop-color="#55376F"/>
</linearGradient>
<linearGradient id="paint4_linear_275_509" x1="219.894" y1="146.585" x2="95.7974" y2="268.157" gradientUnits="userSpaceOnUse">
<stop offset="0.0264934" stop-color="#412756"/>
<stop offset="0.999538" stop-color="#55376F"/>
</linearGradient>
</defs>
</svg>
