<svg width="195" height="15" viewBox="0 0 195 15" fill="none" xmlns="http://www.w3.org/2000/svg">
<path d="M10.123 0.357422H12.0762V14H10.123V8.0625H2.45703V14H0.503906V0.357422H2.45703V6.25586H10.123V0.357422ZM33.593 0.162109C35.7023 0.162109 37.4569 0.829427 38.8566 2.16406C40.2629 3.4987 40.966 5.17188 40.966 7.18359C40.966 9.19531 40.2564 10.862 38.8371 12.1836C37.4243 13.4987 35.6405 14.1562 33.4855 14.1562C31.4283 14.1562 29.7128 13.4987 28.3391 12.1836C26.9719 10.862 26.2883 9.20833 26.2883 7.22266C26.2883 5.1849 26.9784 3.4987 28.3586 2.16406C29.7388 0.829427 31.4836 0.162109 33.593 0.162109ZM33.6711 2.01758C32.1086 2.01758 30.8228 2.50586 29.8137 3.48242C28.8111 4.45898 28.3098 5.70573 28.3098 7.22266C28.3098 8.69401 28.8143 9.91797 29.8234 10.8945C30.8326 11.8711 32.0956 12.3594 33.6125 12.3594C35.1359 12.3594 36.4055 11.8613 37.4211 10.8652C38.4432 9.86914 38.9543 8.62891 38.9543 7.14453C38.9543 5.69922 38.4432 4.48503 37.4211 3.50195C36.4055 2.51237 35.1555 2.01758 33.6711 2.01758ZM61.8578 0.162109C63.9672 0.162109 65.7217 0.829427 67.1215 2.16406C68.5277 3.4987 69.2309 5.17188 69.2309 7.18359C69.2309 9.19531 68.5212 10.862 67.102 12.1836C65.6892 13.4987 63.9053 14.1562 61.7504 14.1562C59.6931 14.1562 57.9776 13.4987 56.6039 12.1836C55.2367 10.862 54.5531 9.20833 54.5531 7.22266C54.5531 5.1849 55.2432 3.4987 56.6234 2.16406C58.0036 0.829427 59.7484 0.162109 61.8578 0.162109ZM61.9359 2.01758C60.3734 2.01758 59.0876 2.50586 58.0785 3.48242C57.0759 4.45898 56.5746 5.70573 56.5746 7.22266C56.5746 8.69401 57.0792 9.91797 58.0883 10.8945C59.0974 11.8711 60.3604 12.3594 61.8773 12.3594C63.4008 12.3594 64.6703 11.8613 65.6859 10.8652C66.7081 9.86914 67.2191 8.62891 67.2191 7.14453C67.2191 5.69922 66.7081 4.48503 65.6859 3.50195C64.6703 2.51237 63.4203 2.01758 61.9359 2.01758ZM83.443 13.9805V0.357422H88.0426C89.898 0.357422 91.3661 0.63737 92.4469 1.19727C93.5276 1.75065 94.387 2.56771 95.025 3.64844C95.663 4.72917 95.982 5.90755 95.982 7.18359C95.982 8.09505 95.8063 8.96745 95.4547 9.80078C95.1031 10.6341 94.6018 11.3665 93.9508 11.998C93.2867 12.6491 92.5152 13.1406 91.6363 13.4727C91.122 13.6745 90.65 13.8112 90.2203 13.8828C89.7906 13.9479 88.9703 13.9805 87.7594 13.9805H83.443ZM87.8375 2.0957H85.3961V12.2422H87.8961C88.8727 12.2422 89.6311 12.1771 90.1715 12.0469C90.7119 11.9102 91.1611 11.7409 91.5191 11.5391C91.8837 11.3307 92.2158 11.0768 92.5152 10.7773C93.4788 9.80078 93.9605 8.56706 93.9605 7.07617C93.9605 5.61133 93.4658 4.41667 92.4762 3.49219C92.1116 3.14714 91.6917 2.86393 91.2164 2.64258C90.7477 2.42122 90.3017 2.27474 89.8785 2.20312C89.4553 2.13151 88.775 2.0957 87.8375 2.0957Z" fill="white"/>
<path d="M110.282 14V0.357422H113.7C115.08 0.357422 116.174 0.699219 116.981 1.38281C117.795 2.06641 118.202 2.99089 118.202 4.15625C118.202 4.95052 118.003 5.63737 117.606 6.2168C117.209 6.79622 116.639 7.22917 115.897 7.51562C116.333 7.80208 116.76 8.19271 117.177 8.6875C117.593 9.18229 118.179 10.0449 118.934 11.2754C119.41 12.0501 119.79 12.6328 120.077 13.0234L120.8 14H118.475L117.88 13.1016C117.86 13.069 117.821 13.0137 117.762 12.9355L117.382 12.3984L116.776 11.4023L116.122 10.3379C115.718 9.77799 115.347 9.33203 115.009 9C114.677 8.66797 114.374 8.43034 114.1 8.28711C113.833 8.13737 113.381 8.0625 112.743 8.0625H112.235V14H110.282ZM112.821 2.01758H112.235V6.32422H112.977C113.967 6.32422 114.644 6.23958 115.009 6.07031C115.38 5.90104 115.666 5.64714 115.868 5.30859C116.076 4.96354 116.18 4.57292 116.18 4.13672C116.18 3.70703 116.067 3.31966 115.839 2.97461C115.611 2.62305 115.289 2.37565 114.872 2.23242C114.462 2.08919 113.778 2.01758 112.821 2.01758ZM138.469 0.279297H139.846L145.949 14H143.947L142.131 9.95703H136.33L134.611 14H132.609L138.469 0.279297ZM141.33 8.21875L139.133 3.27734L137.092 8.21875H141.33ZM158.091 0.337891H169.488V2.07617H164.732V14H162.769V2.07617H158.091V0.337891ZM182.44 0.337891H194.198L185.477 12.2617H194.198V14H181.883L190.623 2.07617H182.44V0.337891Z" fill="#F05B88"/>
</svg>
