<svg width="187" height="15" viewBox="0 0 187 15" fill="none" xmlns="http://www.w3.org/2000/svg">
<path d="M9.66905 0.914262H11.5425V14H9.66905V8.30485H2.31593V14H0.442522V0.914262H2.31593V6.57195H9.66905V0.914262ZM32.181 0.726921C34.2043 0.726921 35.8872 1.367 37.2298 2.64716C38.5787 3.92732 39.2531 5.53221 39.2531 7.46181C39.2531 9.39142 38.5724 10.9901 37.2111 12.2577C35.856 13.5192 34.145 14.1499 32.078 14.1499C30.1047 14.1499 28.4592 13.5192 27.1416 12.2577C25.8302 10.9901 25.1745 9.40391 25.1745 7.49928C25.1745 5.5447 25.8364 3.92732 27.1603 2.64716C28.4842 1.367 30.1577 0.726921 32.181 0.726921ZM32.2559 2.50666C30.7572 2.50666 29.5239 2.97501 28.556 3.91171C27.5943 4.84841 27.1134 6.04427 27.1134 7.49928C27.1134 8.91058 27.5974 10.0846 28.5653 11.0213C29.5333 11.958 30.7447 12.4263 32.1997 12.4263C33.661 12.4263 34.8787 11.9486 35.8529 10.9932C36.8333 10.0377 37.3235 8.84813 37.3235 7.42435C37.3235 6.03803 36.8333 4.87339 35.8529 3.93044C34.8787 2.98125 33.6797 2.50666 32.2559 2.50666ZM59.2922 0.726921C61.3155 0.726921 62.9984 1.367 64.341 2.64716C65.6899 3.92732 66.3643 5.53221 66.3643 7.46181C66.3643 9.39142 65.6836 10.9901 64.3223 12.2577C62.9672 13.5192 61.2561 14.1499 59.1892 14.1499C57.2158 14.1499 55.5704 13.5192 54.2527 12.2577C52.9413 10.9901 52.2857 9.40391 52.2857 7.49928C52.2857 5.5447 52.9476 3.92732 54.2715 2.64716C55.5953 1.367 57.2689 0.726921 59.2922 0.726921ZM59.3671 2.50666C57.8684 2.50666 56.6351 2.97501 55.6671 3.91171C54.7055 4.84841 54.2246 6.04427 54.2246 7.49928C54.2246 8.91058 54.7086 10.0846 55.6765 11.0213C56.6444 11.958 57.8559 12.4263 59.3109 12.4263C60.7722 12.4263 61.9899 11.9486 62.9641 10.9932C63.9445 10.0377 64.4347 8.84813 64.4347 7.42435C64.4347 6.03803 63.9445 4.87339 62.9641 3.93044C61.9899 2.98125 60.7909 2.50666 59.3671 2.50666ZM79.9963 13.9813V0.914262H84.4082C86.1879 0.914262 87.5961 1.18278 88.6327 1.71983C89.6693 2.25062 90.4936 3.03433 91.1056 4.07095C91.7176 5.10757 92.0236 6.23786 92.0236 7.46181C92.0236 8.33607 91.855 9.17286 91.5178 9.97218C91.1806 10.7715 90.6997 11.474 90.0752 12.0798C89.4383 12.7042 88.6983 13.1757 87.8553 13.4942C87.3619 13.6878 86.9092 13.8189 86.497 13.8876C86.0849 13.95 85.2981 13.9813 84.1365 13.9813H79.9963ZM84.2115 2.58159H81.8697V12.3139H84.2677C85.2044 12.3139 85.9319 12.2515 86.4502 12.1266C86.9685 11.9955 87.3994 11.8331 87.7429 11.6395C88.0926 11.4397 88.411 11.1961 88.6983 10.9089C89.6225 9.97218 90.0846 8.78881 90.0846 7.35878C90.0846 5.95372 89.61 4.80782 88.6608 3.92108C88.3111 3.59011 87.9083 3.31847 87.4525 3.10615C87.0029 2.89383 86.5751 2.75332 86.1692 2.68463C85.7633 2.61594 85.1107 2.58159 84.2115 2.58159ZM105.74 14V0.914262H109.018C110.342 0.914262 111.391 1.24211 112.166 1.8978C112.946 2.55349 113.337 3.44024 113.337 4.55804C113.337 5.31989 113.146 5.9787 112.765 6.53448C112.384 7.09026 111.838 7.50553 111.126 7.78029C111.544 8.05506 111.953 8.42974 112.353 8.90434C112.753 9.37893 113.315 10.2064 114.039 11.3866C114.495 12.1297 114.86 12.6886 115.135 13.0633L115.828 14H113.599L113.027 13.1382C113.009 13.107 112.971 13.0539 112.915 12.979L112.55 12.4638L111.969 11.5084L111.341 10.4874C110.954 9.95032 110.598 9.52256 110.274 9.20408C109.955 8.8856 109.665 8.65767 109.402 8.52029C109.146 8.37666 108.712 8.30485 108.1 8.30485H107.613V14H105.74ZM108.175 2.50666H107.613V6.63752H108.325C109.274 6.63752 109.924 6.55633 110.274 6.39397C110.63 6.23161 110.904 5.98807 111.098 5.66334C111.298 5.33238 111.398 4.9577 111.398 4.5393C111.398 4.12715 111.288 3.75559 111.07 3.42463C110.851 3.08741 110.542 2.85011 110.142 2.71273C109.749 2.57535 109.093 2.50666 108.175 2.50666ZM132.776 0.839325H134.097L139.951 14H138.031L136.289 10.1221H130.725L129.076 14H127.156L132.776 0.839325ZM135.521 8.45472L133.413 3.715L131.455 8.45472H135.521ZM151.598 0.895527H162.529V2.56286H157.967V14H156.084V2.56286H151.598V0.895527ZM174.953 0.895527H186.23L177.866 12.3327H186.23V14H174.419L182.802 2.56286H174.953V0.895527Z" fill="white"/>
</svg>
