<svg width="115" height="29" viewBox="0 0 115 29" fill="none" xmlns="http://www.w3.org/2000/svg">
<g clip-path="url(#clip0_538_838)">
<path d="M32.6047 16.5791C32.603 16.6793 32.5617 16.7747 32.4899 16.8446C32.4181 16.9144 32.3215 16.953 32.2213 16.9518H25.1616C25.3426 18.6981 26.6523 20.2954 28.5051 20.2954C29.7723 20.2954 30.7093 19.8162 31.4121 18.8046C31.4448 18.7515 31.4901 18.7072 31.5439 18.6756C31.5977 18.644 31.6585 18.6262 31.7209 18.6236C31.7674 18.6223 31.8137 18.6305 31.8569 18.6476C31.9001 18.6648 31.9394 18.6907 31.9723 18.7236C32.0052 18.7565 32.031 18.7957 32.0482 18.839C32.0654 18.8822 32.0736 18.9285 32.0723 18.975C32.0725 19.0392 32.054 19.1021 32.019 19.156C31.3056 20.3912 29.8894 20.9981 28.5051 20.9981C26.1306 20.9981 24.4269 18.8685 24.4269 16.6004C24.4269 14.3324 26.1199 12.2028 28.5051 12.2028C30.8903 12.2028 32.594 14.3111 32.6047 16.5791V16.5791ZM31.8486 16.2491C31.6996 14.5028 30.3579 12.9055 28.5051 12.9055C26.6523 12.9055 25.3426 14.5028 25.1616 16.2491H31.8486Z" fill="#D6D3D9"/>
<path d="M41.187 12.3731C41.2794 12.3758 41.3672 12.4137 41.4325 12.479C41.4978 12.5443 41.5357 12.6321 41.5384 12.7245C41.5397 12.771 41.5315 12.8173 41.5143 12.8605C41.4972 12.9037 41.4713 12.943 41.4384 12.9759C41.4055 13.0088 41.3663 13.0346 41.323 13.0518C41.2798 13.069 41.2335 13.0772 41.187 13.0759H39.2916V20.5189C39.2908 20.6119 39.2535 20.7008 39.1878 20.7665C39.1221 20.8322 39.0332 20.8695 38.9403 20.8703C38.8479 20.8676 38.7601 20.8298 38.6948 20.7644C38.6294 20.6991 38.5915 20.6113 38.5889 20.5189V13.0759H36.768C36.7215 13.0772 36.6752 13.069 36.632 13.0518C36.5888 13.0346 36.5495 13.0088 36.5166 12.9759C36.4837 12.943 36.4579 12.9037 36.4407 12.8605C36.4235 12.8173 36.4153 12.771 36.4166 12.7245C36.4175 12.6316 36.4548 12.5427 36.5205 12.4769C36.5862 12.4112 36.6751 12.3739 36.768 12.3731H38.5889V9.65782C38.589 9.56785 38.6213 9.48089 38.6799 9.41258C38.7384 9.34426 38.8194 9.29907 38.9083 9.28514C38.958 9.27854 39.0085 9.28274 39.0564 9.29747C39.1043 9.31219 39.1485 9.33708 39.1859 9.37044C39.2233 9.40381 39.2531 9.44485 39.2732 9.49077C39.2933 9.53669 39.3032 9.58641 39.3023 9.63652V12.3731H41.187Z" fill="#D6D3D9"/>
<path d="M52.7403 15.9721V20.4763C52.7376 20.5686 52.6997 20.6565 52.6344 20.7218C52.569 20.7871 52.4812 20.825 52.3889 20.8277C52.3424 20.829 52.2961 20.8208 52.2528 20.8036C52.2096 20.7864 52.1704 20.7606 52.1375 20.7277C52.1046 20.6948 52.0787 20.6555 52.0615 20.6123C52.0443 20.5691 52.0362 20.5228 52.0375 20.4763V15.9721C52.0375 14.4494 51.175 12.9374 49.4819 12.9374C47.3097 12.9374 46.3727 14.8328 46.5004 16.7814C46.5004 16.8346 46.5217 17.0582 46.5217 17.0902V20.4656C46.5216 20.5556 46.4893 20.6426 46.4307 20.7109C46.3722 20.7792 46.2912 20.8244 46.2023 20.8383C46.1526 20.8449 46.1021 20.8407 46.0542 20.826C46.0063 20.8113 45.9621 20.7864 45.9247 20.753C45.8873 20.7197 45.8575 20.6786 45.8374 20.6327C45.8174 20.5868 45.8074 20.5371 45.8083 20.4869V5.67536C45.8091 5.58243 45.8464 5.49353 45.9122 5.42782C45.9779 5.3621 46.0668 5.32481 46.1597 5.32397C46.252 5.32665 46.3399 5.36453 46.4052 5.42986C46.4705 5.49519 46.5084 5.58302 46.5111 5.67536V14.0448C47.118 12.9587 48.2041 12.224 49.4713 12.224C51.5583 12.224 52.7403 14.0448 52.7403 15.9721Z" fill="#D6D3D9"/>
<path d="M65.4223 16.5791C65.4206 16.6793 65.3793 16.7747 65.3075 16.8446C65.2356 16.9144 65.1391 16.953 65.0389 16.9518H57.9792C58.1602 18.6981 59.4699 20.2954 61.3227 20.2954C62.5899 20.2954 63.5269 19.8162 64.2297 18.8046C64.2624 18.7515 64.3077 18.7072 64.3615 18.6756C64.4153 18.644 64.4761 18.6262 64.5385 18.6236C64.585 18.6223 64.6312 18.6305 64.6745 18.6476C64.7177 18.6648 64.757 18.6907 64.7899 18.7236C64.8228 18.7565 64.8486 18.7957 64.8658 18.839C64.883 18.8822 64.8912 18.9285 64.8899 18.975C64.8901 19.0392 64.8716 19.1021 64.8366 19.156C64.1232 20.3912 62.707 20.9981 61.3227 20.9981C58.9482 20.9981 57.2445 18.8685 57.2445 16.6004C57.2445 14.3324 58.9375 12.2028 61.3227 12.2028C63.6866 12.2028 65.4116 14.3111 65.4223 16.5791V16.5791ZM64.6556 16.2491C64.5065 14.5028 63.1648 12.9055 61.3121 12.9055C59.4593 12.9055 58.1496 14.5028 57.9686 16.2491H64.6556Z" fill="#D6D3D9"/>
<path d="M74.1005 12.7031C74.1072 12.7977 74.0763 12.891 74.0144 12.9629C73.9526 13.0347 73.8649 13.0791 73.7704 13.0865C71.694 13.3953 70.7569 15.0883 70.7569 17.0582V20.4337C70.7568 20.5237 70.7245 20.6106 70.6659 20.6789C70.6074 20.7473 70.5264 20.7924 70.4375 20.8064C70.3878 20.813 70.3373 20.8088 70.2894 20.7941C70.2415 20.7793 70.1973 20.7544 70.1599 20.7211C70.1225 20.6877 70.0927 20.6467 70.0726 20.6007C70.0526 20.5548 70.0426 20.5051 70.0435 20.455V12.7564C70.0437 12.6664 70.076 12.5794 70.1345 12.5111C70.1931 12.4428 70.2741 12.3976 70.363 12.3837C70.4126 12.3771 70.4632 12.3813 70.5111 12.396C70.559 12.4107 70.6032 12.4356 70.6406 12.469C70.678 12.5024 70.7077 12.5434 70.7278 12.5893C70.7479 12.6353 70.7578 12.685 70.7569 12.7351V14.3004C71.3426 13.3101 72.5032 12.373 73.7171 12.373C73.8981 12.373 74.1005 12.5008 74.1005 12.7031Z" fill="#D6D3D9"/>
<path d="M85.7069 16.5791C85.7052 16.6793 85.664 16.7747 85.5921 16.8446C85.5203 16.9144 85.4238 16.953 85.3236 16.9518H78.2639C78.4449 18.6981 79.7546 20.2954 81.6074 20.2954C82.8745 20.2954 83.8116 19.8162 84.5143 18.8046C84.5471 18.7515 84.5923 18.7072 84.6462 18.6756C84.7 18.644 84.7608 18.6262 84.8231 18.6236C84.8696 18.6223 84.9159 18.6305 84.9591 18.6476C85.0024 18.6648 85.0416 18.6907 85.0745 18.7236C85.1074 18.7565 85.1333 18.7957 85.1505 18.839C85.1677 18.8822 85.1758 18.9285 85.1745 18.975C85.1748 19.0392 85.1563 19.1021 85.1213 19.156C84.4079 20.3912 82.9916 20.9981 81.6074 20.9981C79.2329 20.9981 77.5291 18.8685 77.5291 16.6004C77.5291 14.3324 79.2222 12.2028 81.6074 12.2028C83.9926 12.2028 85.6963 14.3111 85.7069 16.5791V16.5791ZM84.9509 16.2491C84.8018 14.5028 83.4602 12.9055 81.6074 12.9055C79.7546 12.9055 78.4449 14.5028 78.2639 16.2491H84.9509Z" fill="#D6D3D9"/>
<path d="M97.1218 12.7884V20.5189C97.1191 20.6113 97.0812 20.6991 97.0159 20.7644C96.9506 20.8297 96.8627 20.8676 96.7704 20.8703C96.7239 20.8716 96.6776 20.8634 96.6344 20.8463C96.5911 20.8291 96.5519 20.8032 96.519 20.7703C96.4861 20.7374 96.4602 20.6982 96.443 20.6549C96.4259 20.6117 96.4177 20.5654 96.419 20.5189V19.0495C95.8333 20.2101 94.8005 21.0513 93.4801 21.0513C91.3824 21.0513 90.2218 19.2305 90.2218 17.3032V12.7777C90.2226 12.6848 90.2599 12.5959 90.3256 12.5302C90.3913 12.4644 90.4802 12.4272 90.5732 12.4263C90.6655 12.429 90.7533 12.4669 90.8187 12.5322C90.884 12.5975 90.9219 12.6854 90.9246 12.7777V17.3032C90.9246 18.8259 91.7871 20.3379 93.4801 20.3379C95.8546 20.3379 96.419 18.1124 96.419 15.6527V12.7671C96.4198 12.7101 96.4342 12.6541 96.461 12.6039C96.4879 12.5536 96.5264 12.5106 96.5733 12.4782C96.6202 12.4459 96.6742 12.4253 96.7307 12.4181C96.7872 12.4109 96.8447 12.4174 96.8982 12.437C96.9651 12.4681 97.0217 12.5177 97.0613 12.58C97.101 12.6422 97.1219 12.7146 97.1218 12.7884V12.7884Z" fill="#D6D3D9"/>
<path d="M115 15.9403V20.4658C114.997 20.5581 114.959 20.646 114.894 20.7113C114.829 20.7766 114.741 20.8145 114.649 20.8172C114.602 20.8185 114.556 20.8103 114.513 20.7931C114.469 20.7759 114.43 20.7501 114.397 20.7172C114.364 20.6843 114.338 20.645 114.321 20.6018C114.304 20.5586 114.296 20.5123 114.297 20.4658V15.9403C114.297 14.4176 113.435 12.9269 111.742 12.9269C109.612 12.9269 108.803 15.2056 108.803 16.9732V20.4658C108.8 20.5581 108.762 20.646 108.697 20.7113C108.632 20.7766 108.544 20.8145 108.451 20.8172C108.405 20.8185 108.359 20.8103 108.315 20.7931C108.272 20.7759 108.233 20.7501 108.2 20.7172C108.167 20.6843 108.141 20.645 108.124 20.6018C108.107 20.5586 108.099 20.5123 108.1 20.4658V15.9403C108.1 14.4176 107.238 12.9269 105.544 12.9269C103.394 12.9269 102.51 14.62 102.584 16.8774C102.584 16.9306 102.606 17.0264 102.584 17.0584V20.4551C102.584 20.5451 102.552 20.6321 102.493 20.7004C102.435 20.7687 102.354 20.8139 102.265 20.8278C102.215 20.8344 102.165 20.8302 102.117 20.8155C102.069 20.8008 102.025 20.7759 101.987 20.7425C101.95 20.7092 101.92 20.6681 101.9 20.6222C101.88 20.5763 101.87 20.5265 101.871 20.4764V12.7565C101.871 12.6666 101.903 12.5796 101.962 12.5113C102.02 12.443 102.101 12.3978 102.19 12.3838C102.24 12.3772 102.29 12.3815 102.338 12.3962C102.386 12.4109 102.43 12.4358 102.468 12.4692C102.505 12.5025 102.535 12.5436 102.555 12.5895C102.575 12.6354 102.585 12.6851 102.584 12.7352V14.0237C103.191 12.9375 104.277 12.2241 105.544 12.2241C106.982 12.2241 108.1 13.1399 108.558 14.4709C109.144 13.1505 110.283 12.2241 111.742 12.2241C113.818 12.2241 115 14.0237 115 15.9403Z" fill="#D6D3D9"/>
<path opacity="0.6" d="M8.83796 10.6588L0 14.6732L8.83796 19.9014L17.6866 14.6732L8.83796 10.6588Z" fill="#D6D3D9"/>
<path opacity="0.45" d="M0 14.6731L8.83796 19.9014V0L0 14.6731Z" fill="#D6D3D9"/>
<path opacity="0.8" d="M8.83795 0V19.9014L17.6866 14.6731L8.83795 0Z" fill="#D6D3D9"/>
<path opacity="0.45" d="M0 16.3555L8.83796 28.8138V21.5731L0 16.3555Z" fill="#D6D3D9"/>
<path opacity="0.8" d="M8.83795 21.5731V28.8138L17.6866 16.3555L8.83795 21.5731Z" fill="#D6D3D9"/>
</g>
<defs>
<clipPath id="clip0_538_838">
<rect width="115" height="28.8139" fill="white"/>
</clipPath>
</defs>
</svg>
