<svg width="136" height="28" viewBox="0 0 136 28" fill="none" xmlns="http://www.w3.org/2000/svg">
<g clip-path="url(#clip0_538_786)">
<path d="M8.77327 13.4748C8.74315 13.9994 8.92254 14.5146 9.27202 14.9071C9.62151 15.2995 10.1125 15.5372 10.6371 15.5678H10.7452C11.1316 15.5674 11.5094 15.4539 11.832 15.2412C12.1545 15.0285 12.4078 14.7261 12.5605 14.3712C12.7131 14.0162 12.7586 13.6244 12.6911 13.2439C12.6236 12.8635 12.4462 12.5112 12.1808 12.2304C11.9154 11.9496 11.5736 11.7527 11.1976 11.6639C10.8215 11.5751 10.4278 11.5984 10.0648 11.7309C9.70184 11.8633 9.38561 12.0991 9.15514 12.4092C8.92467 12.7193 8.79004 13.0901 8.76787 13.4759L8.77327 13.4748Z" fill="#D6D3D9"/>
<path d="M1.39578 12.9733C1.26965 12.9662 1.14426 12.9967 1.03545 13.0609C0.926639 13.1251 0.8393 13.2201 0.784466 13.3339C0.729632 13.4477 0.709766 13.5752 0.727378 13.7003C0.74499 13.8254 0.799289 13.9425 0.883414 14.0367C0.967539 14.131 1.07771 14.1981 1.20001 14.2298C1.32231 14.2614 1.45125 14.2561 1.57053 14.2145C1.68981 14.1729 1.79408 14.0969 1.87015 13.996C1.94623 13.8952 1.99071 13.774 1.99796 13.6479C2.00293 13.564 1.99127 13.48 1.96366 13.4006C1.93605 13.3213 1.89303 13.2481 1.83707 13.1854C1.78112 13.1228 1.71333 13.0717 1.6376 13.0353C1.56186 12.9989 1.47969 12.9778 1.39578 12.9733V12.9733Z" fill="#D6D3D9"/>
<path d="M8.64787 1.99244C8.76021 1.93475 8.85297 1.84512 8.91447 1.73482C8.97598 1.62453 9.00349 1.49851 8.99352 1.37262C8.98356 1.24673 8.93658 1.1266 8.8585 1.02735C8.78041 0.928101 8.67471 0.854172 8.5547 0.814869C8.43468 0.775565 8.30573 0.772643 8.18406 0.80647C8.06239 0.840298 7.95345 0.909363 7.87095 1.00497C7.78844 1.10058 7.73607 1.21846 7.72042 1.34377C7.70476 1.46908 7.72653 1.59622 7.78298 1.70918C7.82092 1.7848 7.87346 1.85215 7.93756 1.90737C8.00165 1.96258 8.07605 2.00457 8.15645 2.0309C8.23684 2.05723 8.32166 2.06739 8.406 2.06078C8.49034 2.05418 8.57255 2.03095 8.64787 1.99244V1.99244Z" fill="#D6D3D9"/>
<path d="M10.6555 5.49331C10.83 5.4053 10.9744 5.26754 11.0706 5.09745C11.1668 4.92736 11.2104 4.73257 11.1959 4.5377C11.1814 4.34284 11.1094 4.15665 10.9891 4.00267C10.8688 3.8487 10.7055 3.73385 10.52 3.67264C10.3344 3.61144 10.1348 3.60663 9.94653 3.65883C9.75823 3.71102 9.58962 3.81787 9.46204 3.96587C9.33445 4.11387 9.25361 4.29638 9.22973 4.49032C9.20586 4.68426 9.24002 4.88093 9.3279 5.05546C9.38628 5.17141 9.46695 5.27472 9.56528 5.35949C9.66361 5.44426 9.77768 5.50882 9.90097 5.54948C10.0243 5.59014 10.1544 5.60611 10.2838 5.59647C10.4133 5.58683 10.5396 5.55178 10.6555 5.49331V5.49331Z" fill="#D6D3D9"/>
<path d="M3.89964 7.90088C4.03421 7.98937 4.19201 8.03596 4.35306 8.03475C4.51411 8.03354 4.67119 7.98458 4.80441 7.89407C4.93763 7.80357 5.04102 7.67558 5.10148 7.5263C5.16194 7.37702 5.17676 7.21316 5.14407 7.05545C5.11138 6.89775 5.03264 6.75328 4.91782 6.64034C4.803 6.52739 4.65726 6.45105 4.49904 6.42095C4.34082 6.39086 4.17723 6.40838 4.02896 6.47128C3.8807 6.53419 3.75443 6.63967 3.66612 6.77436C3.54786 6.95476 3.50602 7.17472 3.54981 7.38593C3.59359 7.59715 3.71941 7.78236 3.89964 7.90088V7.90088Z" fill="#D6D3D9"/>
<path d="M5.1029 12.6133C4.90782 12.6023 4.71385 12.6493 4.54552 12.7485C4.37719 12.8477 4.24204 12.9946 4.15717 13.1706C4.0723 13.3466 4.04152 13.5438 4.0687 13.7373C4.09589 13.9308 4.17983 14.1119 4.30991 14.2577C4.43999 14.4035 4.61038 14.5074 4.79953 14.5564C4.98868 14.6054 5.18811 14.5972 5.3726 14.5329C5.5571 14.4685 5.71838 14.3509 5.83605 14.195C5.95373 14.039 6.02252 13.8516 6.03374 13.6565C6.04849 13.3948 5.95875 13.1379 5.78421 12.9423C5.60968 12.7467 5.36463 12.6283 5.1029 12.6133V12.6133Z" fill="#D6D3D9"/>
<path d="M4.00774 19.257C3.86406 19.3296 3.74514 19.4431 3.66601 19.5833C3.58688 19.7235 3.55108 19.884 3.56315 20.0445C3.57521 20.2051 3.6346 20.3584 3.7338 20.4852C3.83301 20.612 3.96757 20.7065 4.12048 20.7568C4.27339 20.8071 4.43779 20.811 4.59289 20.7679C4.74799 20.7248 4.88684 20.6367 4.99187 20.5147C5.0969 20.3927 5.1634 20.2423 5.18297 20.0825C5.20254 19.9227 5.1743 19.7607 5.10182 19.617C5.05366 19.5215 4.98714 19.4364 4.90608 19.3666C4.82502 19.2968 4.73099 19.2437 4.62939 19.2102C4.52778 19.1768 4.42058 19.1637 4.31391 19.1717C4.20724 19.1797 4.1032 19.2087 4.00774 19.257V19.257Z" fill="#D6D3D9"/>
<path d="M7.84894 10.5713C8.04136 10.6974 8.26686 10.7636 8.49691 10.7616C8.72696 10.7595 8.95124 10.6893 9.14139 10.5598C9.33154 10.4303 9.47902 10.2473 9.56518 10.034C9.65135 9.8207 9.67232 9.58662 9.62546 9.36139C9.5786 9.13615 9.46601 8.92986 9.30191 8.76862C9.13782 8.60737 8.9296 8.49839 8.70357 8.45548C8.47755 8.41256 8.24388 8.43763 8.0321 8.52751C7.82033 8.61739 7.63996 8.76805 7.5138 8.96043C7.42987 9.08816 7.37196 9.23118 7.34338 9.38132C7.3148 9.53145 7.31611 9.68575 7.34725 9.83538C7.37838 9.98501 7.43871 10.127 7.5248 10.2533C7.61089 10.3796 7.72104 10.4876 7.84894 10.5713V10.5713Z" fill="#D6D3D9"/>
<path d="M20.0352 5.41553C20.1991 5.5224 20.3909 5.5783 20.5865 5.57616C20.7821 5.57401 20.9727 5.51393 21.1341 5.4035C21.2956 5.29307 21.4207 5.13726 21.4936 4.95575C21.5665 4.77424 21.584 4.57518 21.5438 4.38375C21.5036 4.19231 21.4076 4.01709 21.2678 3.88023C21.128 3.74337 20.9508 3.65101 20.7586 3.61484C20.5664 3.57867 20.3677 3.6003 20.1878 3.677C20.0078 3.7537 19.8547 3.88203 19.7477 4.04576C19.6764 4.15452 19.6273 4.27628 19.6032 4.40405C19.5791 4.53182 19.5804 4.66309 19.6071 4.79034C19.6338 4.91759 19.6854 5.03832 19.7589 5.1456C19.8323 5.25288 19.9262 5.34461 20.0352 5.41553V5.41553Z" fill="#D6D3D9"/>
<path d="M22.0634 1.92554C22.1693 1.99495 22.2934 2.03139 22.42 2.03026C22.5466 2.02912 22.6701 1.99045 22.7747 1.91914C22.8793 1.84783 22.9605 1.74709 23.0078 1.62967C23.0552 1.51224 23.0667 1.3834 23.0408 1.25945C23.0149 1.13551 22.9528 1.02202 22.8624 0.933356C22.7721 0.84469 22.6574 0.784829 22.533 0.761347C22.4085 0.737865 22.28 0.751816 22.1635 0.801437C22.047 0.851057 21.9478 0.934116 21.8785 1.0401C21.7858 1.18207 21.7531 1.35506 21.7878 1.52107C21.8224 1.68709 21.9216 1.83256 22.0634 1.92554V1.92554Z" fill="#D6D3D9"/>
<path d="M20.1909 11.5918C19.9315 11.5769 19.6716 11.6132 19.4262 11.6987C19.1808 11.7842 18.9546 11.9172 18.7606 12.0902C18.3688 12.4394 18.1318 12.93 18.1017 13.454C18.0716 13.978 18.2509 14.4925 18.6001 14.8843C18.9493 15.2761 19.4399 15.5131 19.9639 15.5432C20.0017 15.5432 20.0406 15.5432 20.0785 15.5432C20.4602 15.543 20.8337 15.4324 21.154 15.2247C21.4743 15.017 21.7276 14.7211 21.8835 14.3727C22.0394 14.0243 22.0911 13.6382 22.0325 13.261C21.9739 12.8838 21.8074 12.5316 21.5531 12.2469C21.3809 12.0527 21.1718 11.8948 20.9379 11.7823C20.704 11.6698 20.4501 11.6051 20.1909 11.5918V11.5918Z" fill="#D6D3D9"/>
<path d="M11.3053 10.4338C11.4695 10.7619 11.7221 11.0377 12.0346 11.23C12.347 11.4224 12.707 11.5237 13.074 11.5225C13.4122 11.5226 13.7449 11.4359 14.0402 11.2709C14.3355 11.1058 14.5836 10.8678 14.7607 10.5796C14.9379 10.2915 15.0383 9.96266 15.0522 9.62466C15.0662 9.28665 14.9933 8.95071 14.8405 8.64888C14.6751 8.32225 14.422 8.04811 14.1097 7.85717C13.7973 7.66623 13.4379 7.56602 13.0718 7.56777C12.7345 7.56835 12.403 7.65508 12.1087 7.81974C11.8144 7.98439 11.567 8.22152 11.39 8.50862C11.2131 8.79572 11.1124 9.12327 11.0976 9.4602C11.0827 9.79713 11.1542 10.1323 11.3053 10.4338V10.4338Z" fill="#D6D3D9"/>
<path d="M26.8192 7.89877C26.9629 7.82625 27.0819 7.71276 27.1611 7.57265C27.2403 7.43254 27.2762 7.27208 27.2643 7.11157C27.2523 6.95105 27.1931 6.79768 27.094 6.67084C26.9949 6.544 26.8604 6.44937 26.7076 6.39893C26.5547 6.34848 26.3904 6.34448 26.2352 6.38742C26.0801 6.43037 25.9412 6.51833 25.8361 6.6402C25.7309 6.76207 25.6643 6.91237 25.6445 7.07212C25.6248 7.23186 25.6528 7.39387 25.7251 7.53767C25.8224 7.73055 25.9923 7.87692 26.1975 7.94462C26.4026 8.01233 26.6262 7.99584 26.8192 7.89877V7.89877Z" fill="#D6D3D9"/>
<path d="M21.8018 8.52875C21.5963 8.63224 21.4261 8.79434 21.3128 8.99455C21.1994 9.19477 21.148 9.42409 21.1649 9.65354C21.1819 9.88299 21.2665 10.1022 21.4081 10.2836C21.5497 10.4649 21.7419 10.6002 21.9604 10.6723C22.1789 10.7445 22.4138 10.7502 22.6356 10.6888C22.8573 10.6274 23.0558 10.5016 23.2061 10.3273C23.3563 10.1531 23.4515 9.93819 23.4796 9.70984C23.5077 9.48149 23.4675 9.24993 23.364 9.04444C23.2954 8.90791 23.2005 8.78624 23.0848 8.6864C22.9692 8.58657 22.8349 8.51053 22.6898 8.46263C22.5447 8.41473 22.3916 8.39591 22.2392 8.40726C22.0868 8.41861 21.9382 8.45989 21.8018 8.52875V8.52875Z" fill="#D6D3D9"/>
<path d="M15.3389 1.6272C15.4997 1.63636 15.6595 1.59763 15.7983 1.51591C15.9371 1.43418 16.0485 1.31314 16.1184 1.16809C16.1884 1.02305 16.2137 0.860508 16.1913 0.701041C16.1689 0.541574 16.0997 0.392343 15.9924 0.272225C15.8851 0.152107 15.7447 0.0664986 15.5887 0.0262295C15.4328 -0.0140396 15.2685 -0.00716026 15.1165 0.0459972C14.9644 0.0991547 14.8316 0.196202 14.7348 0.324863C14.6379 0.453524 14.5814 0.608018 14.5724 0.768801C14.5603 0.984257 14.6342 1.1957 14.778 1.35666C14.9217 1.51763 15.1234 1.61493 15.3389 1.6272Z" fill="#D6D3D9"/>
<path d="M15.3302 6.75051C15.5599 6.76339 15.7882 6.70789 15.9863 6.59105C16.1844 6.4742 16.3434 6.30125 16.4433 6.09404C16.5431 5.88684 16.5793 5.65468 16.5473 5.42692C16.5152 5.19916 16.4163 4.98601 16.2632 4.81442C16.11 4.64283 15.9094 4.52049 15.6868 4.46287C15.4641 4.40525 15.2293 4.41494 15.0122 4.49071C14.795 4.56647 14.6051 4.70492 14.4666 4.88855C14.3281 5.07217 14.2472 5.29274 14.234 5.52237C14.2166 5.83058 14.3223 6.1331 14.5278 6.3634C14.7334 6.5937 15.022 6.73294 15.3302 6.75051V6.75051Z" fill="#D6D3D9"/>
<path d="M9.02735 18.6253C9.23281 18.5218 9.40293 18.3596 9.51621 18.1593C9.62948 17.959 9.68082 17.7296 9.66372 17.5002C9.64662 17.2707 9.56186 17.0515 9.42015 16.8702C9.27844 16.6889 9.08616 16.5537 8.86761 16.4817C8.64907 16.4098 8.41409 16.4042 8.19238 16.4658C7.97068 16.5273 7.77221 16.6533 7.62209 16.8276C7.47196 17.002 7.37692 17.217 7.34898 17.4454C7.32105 17.6738 7.36147 17.9053 7.46514 18.1107C7.60411 18.3861 7.84674 18.595 8.1397 18.6915C8.43265 18.788 8.75193 18.7642 9.02735 18.6253V18.6253Z" fill="#D6D3D9"/>
<path d="M16.0816 8.44791C15.8403 8.8161 15.7288 9.25424 15.7645 9.69298C15.8003 10.1317 15.9813 10.546 16.279 10.8703C16.5767 11.1945 16.9741 11.4103 17.4082 11.4833C17.8423 11.5563 18.2883 11.4825 18.6757 11.2735C19.0632 11.0645 19.3698 10.7323 19.5472 10.3294C19.7245 9.92649 19.7624 9.47596 19.6549 9.04909C19.5474 8.62222 19.3006 8.2434 18.9536 7.97258C18.6066 7.70175 18.1791 7.5544 17.739 7.55383C17.4102 7.55361 17.0866 7.63521 16.7972 7.7913C16.5079 7.94739 16.262 8.17304 16.0816 8.44791V8.44791Z" fill="#D6D3D9"/>
<path d="M19.5217 16.7216C19.3632 16.4073 19.1237 16.141 18.8279 15.9501C18.5321 15.7592 18.1908 15.6507 17.839 15.6358C17.4873 15.6209 17.138 15.7001 16.8271 15.8652C16.5162 16.0304 16.255 16.2755 16.0705 16.5752C15.8859 16.875 15.7847 17.2186 15.7772 17.5705C15.7697 17.9225 15.8563 18.27 16.028 18.5774C16.1997 18.8847 16.4503 19.1406 16.7539 19.3188C17.0575 19.497 17.4032 19.5909 17.7552 19.5909C18.0649 19.5888 18.3698 19.5148 18.646 19.3747C19.1132 19.1382 19.4676 18.7262 19.6318 18.229C19.7959 17.7318 19.7563 17.1898 19.5217 16.7216V16.7216Z" fill="#D6D3D9"/>
<path d="M22.9791 16.5833C22.7868 16.457 22.5613 16.3906 22.3312 16.3925C22.1012 16.3944 21.8768 16.4644 21.6866 16.5938C21.4963 16.7232 21.3487 16.9061 21.2624 17.1193C21.1761 17.3326 21.155 17.5667 21.2017 17.792C21.2484 18.0172 21.3609 18.2236 21.5249 18.385C21.6889 18.5463 21.897 18.6554 22.1231 18.6985C22.3491 18.7415 22.5828 18.7166 22.7946 18.6268C23.0064 18.537 23.1869 18.3865 23.3132 18.1941C23.4819 17.9361 23.5415 17.6216 23.4789 17.3197C23.4163 17.0178 23.2366 16.753 22.9791 16.5833V16.5833Z" fill="#D6D3D9"/>
<path d="M26.7673 13.6112C26.7783 13.4161 26.7312 13.2221 26.632 13.0538C26.5328 12.8855 26.386 12.7503 26.21 12.6655C26.034 12.5806 25.8368 12.5498 25.6433 12.577C25.4498 12.6042 25.2687 12.6881 25.1229 12.8182C24.9771 12.9483 24.8731 13.1187 24.8242 13.3078C24.7752 13.497 24.7834 13.6964 24.8477 13.8809C24.9121 14.0654 25.0296 14.2267 25.1856 14.3443C25.3416 14.462 25.529 14.5308 25.724 14.542C25.9858 14.5568 26.2427 14.467 26.4383 14.2925C26.6339 14.118 26.7523 13.8729 26.7673 13.6112V13.6112Z" fill="#D6D3D9"/>
<path d="M29.5047 12.9074C29.3783 12.9002 29.2526 12.9305 29.1435 12.9947C29.0344 13.0588 28.9467 13.1539 28.8917 13.2679C28.8366 13.3819 28.8165 13.5096 28.8341 13.635C28.8516 13.7604 28.9059 13.8777 28.9901 13.9722C29.0743 14.0667 29.1847 14.1341 29.3072 14.1659C29.4297 14.1977 29.5589 14.1924 29.6785 14.1508C29.798 14.1091 29.9025 14.033 29.9788 13.9319C30.055 13.8309 30.0996 13.7095 30.1069 13.5831C30.1163 13.4137 30.0583 13.2475 29.9454 13.1209C29.8325 12.9942 29.674 12.9175 29.5047 12.9074V12.9074Z" fill="#D6D3D9"/>
<path d="M26.9273 19.2537C26.7927 19.1655 26.6349 19.1192 26.4739 19.1206C26.3129 19.1221 26.156 19.1713 26.0229 19.2619C25.8899 19.3525 25.7867 19.4806 25.7264 19.6298C25.6661 19.7791 25.6515 19.9429 25.6843 20.1005C25.7171 20.2581 25.7958 20.4025 25.9107 20.5153C26.0255 20.6281 26.1712 20.7044 26.3293 20.7345C26.4875 20.7645 26.651 20.747 26.7992 20.6841C26.9474 20.6213 27.0736 20.5159 27.1619 20.3813C27.2206 20.2918 27.2611 20.1917 27.281 20.0866C27.301 19.9816 27.3001 19.8736 27.2783 19.7689C27.2565 19.6641 27.2143 19.5647 27.1541 19.4763C27.0938 19.3879 27.0168 19.3123 26.9273 19.2537V19.2537Z" fill="#D6D3D9"/>
<path d="M8.76464 25.2288C8.65882 25.1594 8.53478 25.1229 8.40822 25.1239C8.28165 25.125 8.15824 25.1635 8.05358 25.2347C7.94893 25.3059 7.86772 25.4065 7.82024 25.5238C7.77276 25.6411 7.76113 25.7699 7.78682 25.8938C7.81251 26.0178 7.87438 26.1313 7.96459 26.2201C8.0548 26.3089 8.16931 26.3689 8.29364 26.3926C8.41797 26.4163 8.54654 26.4026 8.66309 26.3533C8.77964 26.3039 8.87893 26.2211 8.94843 26.1153C8.99459 26.0451 9.02646 25.9664 9.04221 25.8838C9.05795 25.8012 9.05727 25.7163 9.04021 25.634C9.02314 25.5517 8.99002 25.4735 8.94273 25.404C8.89545 25.3345 8.83493 25.2749 8.76464 25.2288V25.2288Z" fill="#D6D3D9"/>
<path d="M22.1791 25.1618C22.066 25.2187 21.9724 25.308 21.9101 25.4181C21.8477 25.5283 21.8195 25.6545 21.8289 25.7808C21.8383 25.907 21.8849 26.0276 21.9628 26.1274C22.0408 26.2271 22.1466 26.3015 22.2668 26.3411C22.387 26.3808 22.5163 26.3838 22.6383 26.35C22.7603 26.3161 22.8695 26.2469 22.9521 26.1509C23.0347 26.055 23.087 25.9367 23.1024 25.8111C23.1178 25.6854 23.0956 25.558 23.0386 25.445C23.0008 25.3699 22.9486 25.303 22.885 25.248C22.8213 25.1931 22.7474 25.1513 22.6676 25.125C22.5878 25.0987 22.5035 25.0884 22.4197 25.0947C22.3358 25.101 22.2541 25.1238 22.1791 25.1618Z" fill="#D6D3D9"/>
<path d="M14.7453 18.7033C14.9866 18.3351 15.0982 17.8969 15.0624 17.4581C15.0266 17.0193 14.8455 16.605 14.5477 16.2807C14.25 15.9565 13.8525 15.7408 13.4184 15.6679C12.9842 15.5949 12.5381 15.6688 12.1507 15.878C11.7633 16.0871 11.4568 16.4195 11.2795 16.8225C11.1023 17.2254 11.0645 17.676 11.1722 18.1029C11.2799 18.5298 11.5269 18.9085 11.8741 19.1792C12.2213 19.4499 12.6488 19.5971 13.0891 19.5974C13.4179 19.5985 13.7417 19.5173 14.031 19.3611C14.3203 19.2049 14.5659 18.9788 14.7453 18.7033Z" fill="#D6D3D9"/>
<path d="M10.7917 21.7401C10.6282 21.6331 10.4367 21.577 10.2413 21.5789C10.0459 21.5808 9.85545 21.6405 9.69402 21.7506C9.53259 21.8607 9.40743 22.0162 9.33435 22.1974C9.26127 22.3786 9.24355 22.5774 9.28344 22.7687C9.32333 22.96 9.41903 23.1352 9.55844 23.272C9.69786 23.4089 9.87474 23.5014 10.0667 23.5378C10.2587 23.5742 10.4571 23.5529 10.637 23.4765C10.8168 23.4002 10.97 23.2722 11.0771 23.1088C11.2206 22.8894 11.2712 22.622 11.2177 22.3654C11.1641 22.1087 11.0109 21.8838 10.7917 21.7401V21.7401Z" fill="#D6D3D9"/>
<path d="M15.4048 25.5272C15.2441 25.5181 15.0843 25.5568 14.9455 25.6385C14.8068 25.7201 14.6954 25.8411 14.6255 25.9861C14.5555 26.1311 14.5301 26.2936 14.5524 26.453C14.5748 26.6124 14.6439 26.7616 14.751 26.8818C14.8582 27.0019 14.9986 27.0876 15.1544 27.128C15.3102 27.1684 15.4746 27.1617 15.6266 27.1087C15.7786 27.0557 15.9115 26.9588 16.0084 26.8303C16.1054 26.7018 16.1621 26.5474 16.1713 26.3867C16.1775 26.2799 16.1625 26.173 16.1273 26.072C16.0921 25.971 16.0373 25.8779 15.9662 25.7981C15.895 25.7183 15.8088 25.6533 15.7125 25.6068C15.6161 25.5603 15.5116 25.5333 15.4048 25.5272Z" fill="#D6D3D9"/>
<path d="M15.4135 20.4049C15.1836 20.3909 14.9548 20.4454 14.756 20.5616C14.5572 20.6778 14.3973 20.8504 14.2967 21.0575C14.196 21.2646 14.1591 21.4969 14.1906 21.725C14.222 21.9531 14.3205 22.1668 14.4735 22.3389C14.6265 22.511 14.8271 22.6338 15.05 22.6918C15.2728 22.7498 15.5079 22.7403 15.7254 22.6646C15.9428 22.5889 16.1329 22.4503 16.2716 22.2665C16.4103 22.0827 16.4913 21.8618 16.5043 21.6319C16.5221 21.3246 16.4172 21.0228 16.2127 20.7928C16.0081 20.5628 15.7207 20.4232 15.4135 20.4049V20.4049Z" fill="#D6D3D9"/>
<path d="M20.1715 21.6613C19.9969 21.7498 19.8525 21.8882 19.7566 22.0589C19.6608 22.2295 19.6177 22.4248 19.6328 22.62C19.648 22.8151 19.7207 23.0014 19.8417 23.1552C19.9628 23.3091 20.1268 23.4235 20.3129 23.4841C20.4991 23.5447 20.699 23.5487 20.8874 23.4956C21.0758 23.4425 21.2442 23.3347 21.3713 23.1858C21.4984 23.0369 21.5785 22.8537 21.6015 22.6593C21.6244 22.4649 21.5891 22.2681 21.5001 22.0937C21.4414 21.978 21.3604 21.875 21.2618 21.7906C21.1632 21.7062 21.0489 21.6421 20.9255 21.6019C20.8021 21.5618 20.672 21.5463 20.5426 21.5565C20.4132 21.5667 20.2871 21.6023 20.1715 21.6613V21.6613Z" fill="#D6D3D9"/>
<path d="M42.0034 8.90292C43.9192 8.90292 45.2608 9.95592 45.2608 11.9106H47.7701C47.7701 8.48129 45.2414 6.82935 41.9656 6.82935C37.9417 6.82935 35.6043 9.01427 35.6043 13.6317C35.6043 18.3637 37.9417 20.433 41.9656 20.433C45.2803 20.433 47.7701 18.8243 47.7701 15.3939H45.356C45.356 17.3096 44.0338 18.3637 42.0045 18.3637C39.3407 18.3637 38.1125 16.888 38.1125 13.8231V13.4403C38.1147 10.4349 39.359 8.90292 42.0034 8.90292Z" fill="#D6D3D9"/>
<path d="M54.4049 7.06311L49.289 20.2073H51.8188L52.8719 17.3521H58.8839L59.965 20.2073H62.6094L57.4904 7.06311H54.4049ZM53.6384 15.2796L54.98 11.6762C55.2481 10.9681 55.7271 9.43507 55.8233 9.16696H55.9184C56.0146 9.43507 56.4936 10.9865 56.7617 11.6762L58.1023 15.2785L53.6384 15.2796Z" fill="#D6D3D9"/>
<path d="M76.2898 11.0481C76.2898 8.61559 74.8909 7.06311 71.9978 7.06311H65.0614V20.2073H67.5145V15.126H71.5946L74.0811 20.2073H76.7634L73.9525 14.7466C75.5039 14.1336 76.2898 12.8308 76.2898 11.0481ZM71.8054 13.06H67.5145V9.15182H71.8054C73.1276 9.15182 73.8173 9.86103 73.8173 11.0481C73.8173 12.2946 73.0703 13.06 71.8054 13.06Z" fill="#D6D3D9"/>
<path d="M84.8933 7.06311H79.6413V20.2073H84.8912C88.8567 20.2073 91.2697 18.138 91.2697 13.6352C91.2697 9.13236 88.8589 7.06311 84.8933 7.06311ZM88.7637 13.8265C88.7443 16.7012 87.3842 18.1186 84.8933 18.1186H82.0965V9.15182H84.8933C87.3799 9.15182 88.7637 10.5702 88.7637 13.4438V13.8265Z" fill="#D6D3D9"/>
<path d="M97.6959 7.06311L92.5779 20.2073H95.1066L96.1607 17.3521H102.177L103.25 20.2073H105.894L100.778 7.06311H97.6959ZM96.9294 15.2796L98.2689 11.6762C98.537 10.9681 99.0159 9.43507 99.1121 9.16696H99.2094C99.3046 9.43507 99.7846 10.9865 100.053 11.6762L101.393 15.2785L96.9294 15.2796Z" fill="#D6D3D9"/>
<path d="M117.106 14.8806C117.106 15.1293 117.144 15.7996 117.144 15.9153L117.049 15.9531C116.992 15.8774 116.608 15.2061 116.4 14.9001L110.691 7.06311H108.35V20.2073H110.707V12.3325C110.707 12.0081 110.668 11.3746 110.668 11.2784L110.764 11.2211C110.822 11.2978 111.109 11.8535 111.413 12.2946L117.161 20.2073H119.46V7.06311H117.104V14.8806H117.106Z" fill="#D6D3D9"/>
<path d="M129.23 6.83374C125.111 6.83374 122.62 9.01759 122.62 13.635C122.62 18.2525 125.106 20.4363 129.23 20.4363C133.353 20.4363 135.859 18.2525 135.859 13.635C135.859 9.01759 133.349 6.83374 129.23 6.83374ZM133.349 13.8458C133.349 16.8535 131.912 18.367 129.23 18.367C126.567 18.367 125.13 16.8535 125.13 13.8458V13.4437C125.13 10.4349 126.587 8.90299 129.23 8.90299C131.894 8.90299 133.349 10.4349 133.349 13.4437V13.8458Z" fill="#D6D3D9"/>
</g>
<defs>
<clipPath id="clip0_538_786">
<rect width="135.139" height="27.1543" fill="white" transform="translate(0.720062)"/>
</clipPath>
</defs>
</svg>
