<svg width="180" height="45" viewBox="0 0 180 45" fill="none" xmlns="http://www.w3.org/2000/svg">
<path d="M65.1642 23.8648H70.9379C71.7498 23.8648 72.4076 24.5296 72.4076 25.3414C72.4076 26.1603 71.7498 26.8181 70.9379 26.8181H63.9745C63.8625 26.8181 63.7575 26.8601 63.6806 26.9301L61.581 28.7427C61.2591 29.0226 61.4551 29.5475 61.875 29.5475H70.588C70.588 29.5475 70.595 29.5475 70.595 29.5405C70.595 29.5335 70.602 29.5335 70.602 29.5335C70.714 29.5405 70.819 29.5475 70.9309 29.5475C73.2404 29.5475 75.116 27.6649 75.116 25.3414C75.116 23.1369 73.4294 21.3243 71.2739 21.1494C71.2739 21.1494 71.2669 21.1494 71.2669 21.1424C71.2669 21.1354 71.2669 21.1354 71.2599 21.1354H65.0453C64.2334 21.1354 63.5756 20.4705 63.5756 19.6587C63.5756 18.8399 64.2334 18.182 65.0453 18.182H71.9947C72.1067 18.182 72.2187 18.14 72.3026 18.0631L74.2552 16.2505C74.5631 15.9635 74.3602 15.4526 73.9473 15.4526H65.1642C65.1292 15.4526 65.0872 15.4526 65.0523 15.4526C62.7428 15.4526 60.8672 17.3352 60.8672 19.6587C60.8672 21.9822 62.7428 23.8648 65.0523 23.8648C65.0872 23.8648 65.1222 23.8648 65.1642 23.8648Z" fill="#D6D3D9"/>
<path d="M98.7713 15.4457C98.5194 15.4457 98.3164 15.6487 98.3164 15.9076V29.0927C98.3164 29.3446 98.5194 29.5546 98.7713 29.5546H109.339C109.465 29.5546 109.584 29.4986 109.675 29.4076L110.998 27.9869C111.271 27.693 111.068 27.2101 110.662 27.2101H101.438C101.186 27.2101 100.983 27.0071 100.983 26.7482V15.9006C100.983 15.6487 100.78 15.4387 100.528 15.4387H98.7713V15.4457Z" fill="#D6D3D9"/>
<path fill-rule="evenodd" clip-rule="evenodd" d="M81.8461 15.4456C81.8461 15.4526 81.8461 15.4526 81.8461 15.4456C80.4954 15.5085 79.4106 16.5933 79.3477 17.944V26.811C79.3477 26.846 79.3477 26.888 79.3477 26.923C79.3477 28.3297 80.4534 29.4774 81.8461 29.5334H91.434C92.8197 29.4704 93.9324 28.3227 93.9324 26.923C93.9324 26.888 93.9324 26.846 93.9324 26.811V17.951C93.8764 16.6003 92.7917 15.5085 91.441 15.4526H81.8461V15.4456ZM83.6377 17.951C83.6307 17.951 83.6307 17.951 83.6377 17.951C82.7909 17.986 82.112 18.6718 82.077 19.5257V25.1034C82.077 25.1244 82.077 25.1524 82.077 25.1734C82.077 26.0552 82.7699 26.783 83.6377 26.818H89.6494C90.5172 26.783 91.21 26.0552 91.21 25.1734C91.21 25.1524 91.21 25.1244 91.21 25.1034V19.5257C91.175 18.6718 90.4962 17.993 89.6494 17.951H83.6377Z" fill="#D6D3D9"/>
<path fill-rule="evenodd" clip-rule="evenodd" d="M126.357 29.0927C126.357 29.3446 126.56 29.5546 126.812 29.5546H128.603C128.855 29.5546 129.058 29.3516 129.058 29.0927V18.1821C129.058 18.1471 129.058 18.1051 129.058 18.0701C129.058 16.6635 127.96 15.5157 126.588 15.4597H117.385C117.35 15.4597 117.308 15.4597 117.273 15.4597C115.845 15.4597 114.691 16.6285 114.691 18.0771C114.691 18.1121 114.691 18.1541 114.691 18.1891V29.0997C114.691 29.3516 114.894 29.5616 115.145 29.5616H116.937C117.189 29.5616 117.392 29.3586 117.392 29.0997V24.5577C117.392 24.3058 117.595 24.0958 117.847 24.0958H125.923C126.175 24.0958 126.378 24.2988 126.378 24.5577V29.0927H126.357ZM117.378 21.5834V19.3159C117.378 18.4341 118.085 17.7202 118.953 17.7202H124.789C125.657 17.7202 126.364 18.4341 126.364 19.3159V21.5834C126.364 21.8353 126.161 22.0453 125.909 22.0453H117.833C117.581 22.0453 117.378 21.8423 117.378 21.5834Z" fill="#D6D3D9"/>
<path fill-rule="evenodd" clip-rule="evenodd" d="M164.181 29.5545C163.929 29.5545 163.726 29.3515 163.726 29.0926V24.5506C163.726 24.2987 163.523 24.0887 163.271 24.0887H155.104C154.852 24.0887 154.649 24.2917 154.649 24.5506V29.0926C154.649 29.3445 154.446 29.5545 154.194 29.5545H152.388C152.137 29.5545 151.934 29.3515 151.934 29.0926V18.182C151.934 18.147 151.934 18.105 151.934 18.0701C151.934 16.6284 153.102 15.4526 154.544 15.4526C154.579 15.4526 154.621 15.4526 154.656 15.4526H163.957C165.343 15.5156 166.455 16.6634 166.455 18.0631C166.455 18.098 166.455 18.14 166.455 18.175V29.0856C166.455 29.3376 166.252 29.5475 166 29.5475H164.181V29.5545ZM154.649 19.3158V21.5833C154.649 21.8352 154.852 22.0452 155.104 22.0452H163.271C163.523 22.0452 163.726 21.8422 163.726 21.5833V19.3158C163.726 18.434 163.012 17.7201 162.137 17.7201H156.238C155.356 17.7201 154.649 18.434 154.649 19.3158Z" fill="#D6D3D9"/>
<path d="M135.805 15.4456C135.938 15.4456 136.064 15.5015 136.148 15.6065L144.182 25.1874C144.455 25.5093 144.98 25.3134 144.98 24.8865V15.9075C144.98 15.6555 145.183 15.4456 145.435 15.4456H147.226C147.478 15.4456 147.681 15.6485 147.681 15.9075V29.0925C147.681 29.3445 147.478 29.5544 147.226 29.5544H145.001C144.994 29.5544 144.987 29.5474 144.987 29.5404C144.987 29.5334 144.987 29.5334 144.98 29.5264L136.805 20.0155C136.533 19.6936 136.008 19.8966 136.008 20.3165V29.0995C136.008 29.3515 135.805 29.5614 135.553 29.5614H133.747C133.495 29.5614 133.292 29.3585 133.292 29.0995V15.9075C133.292 15.6555 133.495 15.4456 133.747 15.4456H135.805Z" fill="#D6D3D9"/>
<path d="M19.2028 30.0374C19.4267 29.8135 19.7276 29.6875 20.0426 29.6875H49.1911C49.723 29.6875 49.9889 30.3314 49.611 30.7023L43.8513 36.462C43.6273 36.6859 43.3264 36.8119 43.0115 36.8119H13.863C13.3311 36.8119 13.0651 36.1681 13.443 35.7971L19.2028 30.0374Z" fill="#D6D3D9"/>
<path d="M19.2028 8.53791C19.4267 8.31396 19.7276 8.18799 20.0426 8.18799H49.1911C49.723 8.18799 49.9889 8.83185 49.611 9.20276L43.8513 14.9555C43.6273 15.1794 43.3264 15.3054 43.0115 15.3054H13.863C13.3311 15.3054 13.0651 14.6615 13.443 14.2906L19.2028 8.53791Z" fill="#D6D3D9"/>
<path d="M43.8513 19.2178C43.6273 18.9939 43.3264 18.8679 43.0115 18.8679H13.863C13.3311 18.8679 13.0651 19.5118 13.443 19.8827L19.2028 25.6354C19.4267 25.8594 19.7276 25.9853 20.0426 25.9853H49.1911C49.723 25.9853 49.9889 25.3415 49.611 24.9706L43.8513 19.2178Z" fill="#D6D3D9"/>
</svg>
