<svg xmlns="http://www.w3.org/2000/svg" fill="none" viewBox="-6 144 388 65">
<g opacity="0.6" filter="url(#filter0_d_275_1515)">
<path d="M25.9557 208.145H12.8326L12.8326 155.503H-6L-6 144H44.8308V155.503H25.9557L25.9557 208.145Z" fill="url(#paint0_linear_275_1515)" fill-opacity="0.3" shape-rendering="crispEdges"/>
<path d="M51.7963 208.145L51.7963 144H64.0247V170.428C67.0925 166.493 71.4952 164.526 77.2331 164.526C82.6016 164.526 86.7914 166.194 89.8023 169.53C92.8132 172.837 94.3187 177.469 94.3187 183.428L94.3187 208.145H82.0903L82.0903 186.678C82.0903 183.114 81.3092 180.363 79.7469 178.424C78.1846 176.486 75.9974 175.516 73.1853 175.516C70.3164 175.516 68.0724 176.5 66.4533 178.467C64.8343 180.434 64.0247 183.171 64.0247 186.678L64.0247 208.145H51.7963Z" fill="url(#paint1_linear_275_1515)" fill-opacity="0.3" shape-rendering="crispEdges"/>
<path d="M143.977 203.355C138.694 207.118 132.913 209 126.636 209C121.977 209 117.788 208.002 114.066 206.007C110.374 203.982 107.448 201.246 105.289 197.796C103.159 194.346 102.094 190.455 102.094 186.122C102.094 181.988 103.06 178.296 104.991 175.046C106.951 171.796 109.607 169.23 112.959 167.349C116.31 165.467 120.117 164.526 124.378 164.526C128.78 164.526 132.658 165.567 136.009 167.648C139.361 169.701 141.974 172.58 143.849 176.286C145.724 179.964 146.661 184.226 146.661 189.072V190.441H115.259C115.771 192.123 116.609 193.605 117.773 194.888C118.938 196.143 120.387 197.14 122.119 197.882C123.852 198.623 125.84 198.993 128.084 198.993C132.43 198.993 136.478 197.582 140.228 194.76L143.977 203.355ZM114.706 184.197H135.37C135.143 182.344 134.561 180.719 133.623 179.322C132.714 177.897 131.507 176.785 130.002 175.987C128.525 175.189 126.863 174.789 125.017 174.789C123.142 174.789 121.466 175.203 119.989 176.03C118.54 176.856 117.361 177.968 116.452 179.365C115.544 180.762 114.961 182.373 114.706 184.197Z" fill="url(#paint2_linear_275_1515)" fill-opacity="0.3" shape-rendering="crispEdges"/>
<path d="M205.714 207.033C202.447 208.344 199.28 209 196.212 209C193.031 209 190.219 208.33 187.776 206.99C185.361 205.622 183.473 203.726 182.109 201.303C180.746 198.851 180.064 196.029 180.064 192.836V176.329H172.608V165.382H180.703V154.691H192.292V165.382H204.095V176.329H192.292V190.612C192.292 192.95 192.931 194.774 194.21 196.086C195.488 197.368 197.079 198.01 198.982 198.01C200.714 198.01 202.404 197.468 204.052 196.385L205.714 207.033Z" fill="url(#paint3_linear_275_1515)" fill-opacity="0.3" shape-rendering="crispEdges"/>
<path d="M252.943 203.355C247.66 207.118 241.88 209 235.602 209C230.944 209 226.754 208.002 223.033 206.007C219.34 203.982 216.414 201.246 214.256 197.796C212.125 194.346 211.06 190.455 211.06 186.122C211.06 181.988 212.026 178.296 213.957 175.046C215.917 171.796 218.573 169.23 221.925 167.349C225.277 165.467 229.083 164.526 233.344 164.526C237.747 164.526 241.624 165.567 244.976 167.648C248.328 169.701 250.941 172.58 252.816 176.286C254.69 179.964 255.628 184.226 255.628 189.072V190.441L224.226 190.441C224.737 192.123 225.575 193.605 226.74 194.888C227.904 196.143 229.353 197.14 231.086 197.882C232.818 198.623 234.807 198.993 237.051 198.993C241.397 198.993 245.444 197.582 249.194 194.76L252.943 203.355ZM223.672 184.197L244.337 184.197C244.109 182.344 243.527 180.719 242.59 179.322C241.681 177.897 240.474 176.785 238.968 175.987C237.491 175.189 235.829 174.789 233.983 174.789C232.108 174.789 230.432 175.203 228.955 176.03C227.507 176.856 226.328 177.968 225.419 179.365C224.51 180.762 223.928 182.373 223.672 184.197Z" fill="url(#paint4_linear_275_1515)" fill-opacity="0.3" shape-rendering="crispEdges"/>
<path d="M302.261 208.145H291.609L290.97 203.056C289.407 204.938 287.476 206.406 285.175 207.461C282.874 208.487 280.346 209 277.591 209C274.608 209 271.953 208.43 269.623 207.289C267.294 206.121 265.462 204.524 264.127 202.5C262.792 200.447 262.124 198.124 262.124 195.53C262.124 192.793 262.849 190.384 264.297 188.303C265.746 186.221 267.734 184.596 270.262 183.428C272.819 182.23 275.716 181.632 278.954 181.632C280.858 181.632 282.761 181.845 284.664 182.273C286.595 182.701 288.385 183.299 290.032 184.069V182.957C290.032 181.247 289.549 179.779 288.584 178.553C287.646 177.298 286.34 176.329 284.664 175.645C283.016 174.961 281.17 174.618 279.125 174.618C277.165 174.618 275.219 174.932 273.288 175.559C271.384 176.186 269.623 177.127 268.004 178.382L264.681 169.016C267.55 167.534 270.447 166.422 273.373 165.681C276.327 164.911 279.182 164.526 281.937 164.526C286.084 164.526 289.677 165.353 292.717 167.007C295.756 168.632 298.099 170.941 299.747 173.934C301.423 176.899 302.261 180.42 302.261 184.497V208.145ZM280.275 199.549C281.894 199.549 283.442 199.193 284.919 198.48C286.397 197.768 287.59 196.798 288.499 195.572C289.436 194.346 289.933 192.992 289.99 191.51V191.211C288.74 190.355 287.348 189.7 285.814 189.243C284.309 188.759 282.775 188.516 281.213 188.516C278.883 188.516 276.98 189.03 275.503 190.056C274.026 191.082 273.288 192.408 273.288 194.033C273.288 195.088 273.586 196.043 274.182 196.898C274.807 197.725 275.645 198.38 276.696 198.865C277.747 199.321 278.94 199.549 280.275 199.549Z" fill="url(#paint5_linear_275_1515)" fill-opacity="0.3" shape-rendering="crispEdges"/>
<path d="M382 208.145H369.772V186.678C369.772 183.114 369.076 180.363 367.684 178.424C366.292 176.486 364.318 175.516 361.761 175.516C359.148 175.516 357.103 176.5 355.626 178.467C354.177 180.434 353.453 183.171 353.453 186.678V208.145H341.225V186.678C341.225 183.114 340.529 180.363 339.137 178.424C337.745 176.486 335.757 175.516 333.172 175.516C330.587 175.516 328.556 176.5 327.079 178.467C325.63 180.434 324.906 183.171 324.906 186.678V208.145H312.677V165.382H322.435L322.861 172.438C324.281 169.843 326.184 167.876 328.57 166.536C330.985 165.196 333.782 164.526 336.964 164.526C340.287 164.526 343.156 165.225 345.57 166.622C347.985 168.019 349.845 170.029 351.152 172.651C352.601 170 354.518 167.99 356.904 166.622C359.319 165.225 362.173 164.526 365.468 164.526C370.666 164.526 374.714 166.194 377.611 169.53C380.537 172.837 382 177.469 382 183.428V208.145Z" fill="url(#paint6_linear_275_1515)" fill-opacity="0.3" shape-rendering="crispEdges"/>
</g>
<defs>
<filter id="filter0_d_275_1515" x="-146" y="0" width="688" height="365" filterUnits="userSpaceOnUse" color-interpolation-filters="sRGB">
<feFlood flood-opacity="0" result="BackgroundImageFix"/>
<feColorMatrix in="SourceAlpha" type="matrix" values="0 0 0 0 0 0 0 0 0 0 0 0 0 0 0 0 0 0 127 0" result="hardAlpha"/>
<feOffset dx="10" dy="6"/>
<feGaussianBlur stdDeviation="75"/>
<feComposite in2="hardAlpha" operator="out"/>
<feColorMatrix type="matrix" values="0 0 0 0 0.237314 0 0 0 0 0.121415 0 0 0 0 0.33776 0 0 0 1 0"/>
<feBlend mode="normal" in2="BackgroundImageFix" result="effect1_dropShadow_275_1515"/>
<feBlend mode="normal" in="SourceGraphic" in2="effect1_dropShadow_275_1515" result="shape"/>
</filter>
<linearGradient id="paint0_linear_275_1515" x1="328.749" y1="146.626" x2="211.364" y2="318.649" gradientUnits="userSpaceOnUse">
<stop offset="0.0264934" stop-color="#412756"/>
<stop offset="0.999538" stop-color="#55376F"/>
</linearGradient>
<linearGradient id="paint1_linear_275_1515" x1="328.749" y1="146.626" x2="211.364" y2="318.649" gradientUnits="userSpaceOnUse">
<stop offset="0.0264934" stop-color="#412756"/>
<stop offset="0.999538" stop-color="#55376F"/>
</linearGradient>
<linearGradient id="paint2_linear_275_1515" x1="328.749" y1="146.626" x2="211.364" y2="318.649" gradientUnits="userSpaceOnUse">
<stop offset="0.0264934" stop-color="#412756"/>
<stop offset="0.999538" stop-color="#55376F"/>
</linearGradient>
<linearGradient id="paint3_linear_275_1515" x1="328.749" y1="146.626" x2="211.364" y2="318.649" gradientUnits="userSpaceOnUse">
<stop offset="0.0264934" stop-color="#412756"/>
<stop offset="0.999538" stop-color="#55376F"/>
</linearGradient>
<linearGradient id="paint4_linear_275_1515" x1="328.749" y1="146.626" x2="211.364" y2="318.649" gradientUnits="userSpaceOnUse">
<stop offset="0.0264934" stop-color="#412756"/>
<stop offset="0.999538" stop-color="#55376F"/>
</linearGradient>
<linearGradient id="paint5_linear_275_1515" x1="328.749" y1="146.626" x2="211.364" y2="318.649" gradientUnits="userSpaceOnUse">
<stop offset="0.0264934" stop-color="#412756"/>
<stop offset="0.999538" stop-color="#55376F"/>
</linearGradient>
<linearGradient id="paint6_linear_275_1515" x1="328.749" y1="146.626" x2="211.364" y2="318.649" gradientUnits="userSpaceOnUse">
<stop offset="0.0264934" stop-color="#412756"/>
<stop offset="0.999538" stop-color="#55376F"/>
</linearGradient>
</defs>
</svg>
