<svg width="128" height="64" viewBox="0 0 128 64" fill="none" xmlns="http://www.w3.org/2000/svg">
<mask id="mask0_260_1809" style="mask-type:alpha" maskUnits="userSpaceOnUse" x="0" y="0" width="128" height="64">
<rect x="128" y="64" width="128" height="63.0229" transform="rotate(-180 128 64)" fill="#C4C4C4"/>
</mask>
<g mask="url(#mask0_260_1809)">
<circle cx="64.2441" cy="64.2442" r="62.2901" transform="rotate(-180 64.2441 64.2442)" fill="#F7CFDB"/>
<circle cx="64.2441" cy="64.2442" r="52.5191" transform="rotate(-180 64.2441 64.2442)" fill="url(#paint0_radial_260_1809)"/>
<path d="M63.5657 33.2626C64.4613 32.9565 65.0584 32.0382 65.0584 31.12C65.0584 29.8957 64.0135 28.8244 62.8193 28.8244C61.625 28.8244 60.5801 29.8957 60.5801 31.12C60.5801 32.1913 61.1772 32.9565 62.0729 33.2626L62.0729 43.0571L64.4613 47.0361L64.4613 66.9313L65.9541 66.9313L65.9541 46.577L63.5657 42.598L63.5657 33.2626ZM62.8193 32.0382C62.3714 32.0382 62.0729 31.7322 62.0729 31.273C62.0729 30.8139 62.3714 30.5079 62.8193 30.5079C63.2671 30.5079 63.5657 30.8139 63.5657 31.273C63.7149 31.5791 63.2671 32.0382 62.8193 32.0382Z" fill="white"/>
<path d="M74.6262 49.1585L74.6262 45.4813C75.5788 45.1749 76.2139 44.2556 76.2139 43.3364C76.2139 42.1106 75.1025 41.0381 73.8323 41.0381C72.562 41.0381 71.4506 42.1106 71.4506 43.3364C71.4506 44.4088 72.0857 45.1749 73.0384 45.4813L73.0384 48.6988L69.8628 53.142L69.8628 66.9313L71.4506 66.9313L71.4506 53.6017L74.6262 49.1585ZM73.8323 44.1024C73.3559 44.1024 73.0384 43.796 73.0384 43.3364C73.0384 42.8767 73.3559 42.5703 73.8323 42.5703C74.3086 42.5703 74.6262 42.8767 74.6262 43.3364C74.6262 43.796 74.3086 44.1024 73.8323 44.1024Z" fill="white"/>
<path d="M54.041 41.5267C52.8384 41.5267 51.7861 42.6066 51.7861 43.8409C51.7861 44.9208 52.3874 45.6922 53.2894 46.0008L53.2894 52.0176L58.0997 54.3318L58.0997 64.9771L59.6029 64.9771L59.6029 53.4061L54.7926 51.092L54.7926 46.0008C55.6945 45.6922 56.2958 44.7665 56.2958 43.8409C56.2958 42.4523 55.2436 41.5267 54.041 41.5267ZM54.041 42.9152C54.4919 42.9152 54.7926 43.2237 54.7926 43.6866C54.7926 44.1494 54.4919 44.458 54.041 44.458C53.59 44.458 53.2894 44.1494 53.2894 43.6866C53.2894 43.378 53.59 42.9152 54.041 42.9152Z" fill="white"/>
</g>
<defs>
<radialGradient id="paint0_radial_260_1809" cx="0" cy="0" r="1" gradientUnits="userSpaceOnUse" gradientTransform="translate(111.124 29.349) rotate(138.386) scale(115.221 115.373)">
<stop stop-color="#ED9DB9"/>
<stop offset="0.573664" stop-color="#EC83A2"/>
<stop offset="1" stop-color="#F05281"/>
</radialGradient>
</defs>
</svg>
