<svg width="65" height="15" viewBox="0 0 65 15" fill="none" xmlns="http://www.w3.org/2000/svg">
<path d="M0 0V13.8846H2.9635V4.77454L7.13436 10.9759H7.17095L11.3418 4.79283V13.8846H14.4334V0H11.1772L7.20753 6.01848L3.2379 0H0Z" fill="#D6D3D9"/>
<path d="M20.5746 3.47572C21.6478 3.47572 22.5808 3.69523 23.3735 4.13427C24.1662 4.56111 24.7759 5.17089 25.2028 5.96359C25.6418 6.7563 25.8613 7.68316 25.8613 8.74417V9.62224H16.2391V7.66487H24.8003L22.8795 8.78075V8.15878C22.8795 7.68316 22.782 7.27461 22.5869 6.93314C22.3917 6.57947 22.1173 6.31117 21.7637 6.12823C21.4222 5.9453 21.0258 5.85384 20.5746 5.85384C20.1478 5.85384 19.7575 5.9575 19.4038 6.16482C19.0502 6.37214 18.7758 6.65874 18.5806 7.0246C18.3855 7.39047 18.2879 7.79292 18.2879 8.23196V9.23808C18.2879 9.71371 18.3794 10.1405 18.5623 10.5186C18.7453 10.8845 19.0136 11.1711 19.3672 11.3784C19.7209 11.5857 20.1417 11.6894 20.6295 11.6894C21.1173 11.6894 21.5319 11.6101 21.8734 11.4516C22.2149 11.293 22.4649 11.0674 22.6234 10.7747H25.6601C25.465 11.4211 25.1357 11.9943 24.6723 12.4943C24.2089 12.9821 23.6235 13.3663 22.9161 13.6468C22.221 13.9272 21.4466 14.0675 20.5929 14.0675C19.5319 14.0675 18.5989 13.8541 17.794 13.4272C17.0013 12.9882 16.3854 12.3662 15.9464 11.5613C15.5074 10.7564 15.2879 9.82957 15.2879 8.78075C15.2879 7.73194 15.5013 6.80508 15.9281 6.00018C16.3672 5.19528 16.983 4.57331 17.7757 4.13427C18.5806 3.69523 19.5136 3.47572 20.5746 3.47572Z" fill="#D6D3D9"/>
<path d="M31.4905 3.47572C32.5637 3.47572 33.4967 3.69523 34.2894 4.13427C35.0821 4.56111 35.6919 5.17089 36.1187 5.96359C36.5577 6.7563 36.7773 7.68316 36.7773 8.74417V9.62224H27.155V7.66487H35.7163L33.7955 8.78075V8.15878C33.7955 7.68316 33.6979 7.27461 33.5028 6.93314C33.3076 6.57947 33.0332 6.31117 32.6796 6.12823C32.3381 5.9453 31.9417 5.85384 31.4905 5.85384C31.0637 5.85384 30.6734 5.9575 30.3197 6.16482C29.9661 6.37214 29.6917 6.65874 29.4965 7.0246C29.3014 7.39047 29.2039 7.79292 29.2039 8.23196V9.23808C29.2039 9.71371 29.2953 10.1405 29.4783 10.5186C29.6612 10.8845 29.9295 11.1711 30.2832 11.3784C30.6368 11.5857 31.0576 11.6894 31.5454 11.6894C32.0332 11.6894 32.4479 11.6101 32.7893 11.4516C33.1308 11.293 33.3808 11.0674 33.5394 10.7747H36.576C36.3809 11.4211 36.0516 11.9943 35.5882 12.4943C35.1248 12.9821 34.5394 13.3663 33.832 13.6468C33.1369 13.9272 32.3625 14.0675 31.5088 14.0675C30.4478 14.0675 29.5148 13.8541 28.7099 13.4272C27.9172 12.9882 27.3014 12.3662 26.8623 11.5613C26.4233 10.7564 26.2038 9.82957 26.2038 8.78075C26.2038 7.73194 26.4172 6.80508 26.844 6.00018C27.2831 5.19528 27.8989 4.57331 28.6917 4.13427C29.4966 3.69523 30.4295 3.47572 31.4905 3.47572Z" fill="#D6D3D9"/>
<path d="M37.5847 3.65865H40.4385V13.8846H37.5847V3.65865ZM43.091 3.42084C43.8349 3.42084 44.4874 3.59767 45.0484 3.95134C45.6094 4.29281 46.0423 4.80502 46.3472 5.48797C46.6521 6.17092 46.8045 6.98192 46.8045 7.92097V13.8846H43.9508V8.59782C43.9508 7.76853 43.7922 7.13436 43.4752 6.69532C43.1703 6.25629 42.7434 6.03677 42.1946 6.03677C41.8532 6.03677 41.5483 6.14043 41.28 6.34775C41.0117 6.54288 40.8043 6.83557 40.658 7.22583C40.5117 7.60389 40.4385 8.05512 40.4385 8.57953L40.036 5.6892C40.2068 5.01844 40.5604 4.47575 41.097 4.0611C41.6336 3.63426 42.2983 3.42084 43.091 3.42084ZM49.2009 3.42084C49.9936 3.42084 50.6888 3.60987 51.2864 3.98793C51.8961 4.35379 52.3596 4.89649 52.6767 5.61602C53.0059 6.32336 53.1706 7.15266 53.1706 8.1039V13.8846H50.3168V8.59782C50.3168 7.76853 50.1583 7.13436 49.8412 6.69532C49.5363 6.25629 49.1095 6.03677 48.5607 6.03677C48.2192 6.03677 47.9143 6.14043 47.646 6.34775C47.3777 6.54288 47.1704 6.83557 47.024 7.22583C46.8777 7.60389 46.8045 8.05512 46.8045 8.57953L45.8533 5.45138C46.1582 4.84161 46.5972 4.35379 47.1704 3.98793C47.7558 3.60987 48.4326 3.42084 49.2009 3.42084Z" fill="#D6D3D9"/>
<path d="M58.9998 3.42084C59.7803 3.42084 60.4328 3.57938 60.9572 3.89646C61.4816 4.20135 61.8719 4.57941 62.128 5.03064C62.3963 5.46968 62.567 5.89652 62.6402 6.31117L62.1463 8.78075C62.1219 7.93926 61.878 7.27461 61.4145 6.78679C60.9511 6.28678 60.323 6.03677 59.5303 6.03677C58.7376 6.03677 58.0913 6.29287 57.5912 6.80508C57.0912 7.3051 56.8412 7.96365 56.8412 8.78075C56.8412 9.59785 57.0912 10.2625 57.5912 10.7747C58.0913 11.2869 58.7376 11.543 59.5303 11.543C60.323 11.543 60.9511 11.2991 61.4145 10.8113C61.878 10.3113 62.1219 9.63444 62.1463 8.78075L62.6402 11.2686C62.567 11.6955 62.3963 12.1284 62.128 12.5675C61.8719 12.9943 61.4816 13.3663 60.9572 13.6833C60.4328 13.9882 59.7803 14.1407 58.9998 14.1407C57.951 14.1407 57.0363 13.9151 56.2558 13.4638C55.4875 13.0126 54.896 12.3845 54.4814 11.5796C54.0667 10.7625 53.8594 9.82957 53.8594 8.78075C53.8594 7.74414 54.0667 6.81728 54.4814 6.00018C54.896 5.18308 55.4875 4.54892 56.2558 4.09768C57.0363 3.64645 57.951 3.42084 58.9998 3.42084ZM62.1463 3.65865H65V13.8846H62.1463V3.65865Z" fill="#D6D3D9"/>
</svg>
