<svg width="375" height="219" viewBox="0 0 375 219" fill="none" xmlns="http://www.w3.org/2000/svg">
<g opacity="0.6" filter="url(#filter0_d_260_1796)">
<path d="M10 149.19L10 64.69L62.8405 64.69V79.8436H27.3506L27.3506 99.0532H60.5308V114.263H27.3506L27.3506 149.19H10Z" fill="url(#paint0_linear_260_1796)" fill-opacity="0.4" shape-rendering="crispEdges"/>
<path d="M132.27 149.19H119.144L118.581 140.176C116.591 143.481 113.943 145.998 110.638 147.725C107.371 149.453 103.54 150.316 99.1461 150.316C91.9355 150.316 86.2834 148.101 82.1898 143.669C78.0963 139.238 76.0495 133.154 76.0495 125.417L76.0495 92.8566H92.2171L92.2171 121.699C92.2171 126.093 93.2499 129.548 95.3154 132.064C97.4186 134.543 100.273 135.782 103.878 135.782C107.634 135.782 110.601 134.487 112.779 131.895C114.994 129.267 116.102 125.718 116.102 121.248L116.102 92.8566L132.27 92.8566V149.19Z" fill="url(#paint1_linear_260_1796)" fill-opacity="0.4" shape-rendering="crispEdges"/>
<path d="M186.546 147.725C182.227 149.453 178.04 150.316 173.984 150.316C169.777 150.316 166.059 149.434 162.83 147.669C159.637 145.866 157.14 143.369 155.337 140.176C153.535 136.947 152.633 133.229 152.633 129.022V107.278H142.775V92.8566H153.478V78.7733H168.801V92.8566H184.405V107.278H168.801V126.093C168.801 129.173 169.646 131.576 171.336 133.304C173.026 134.994 175.129 135.839 177.645 135.839C179.936 135.839 182.171 135.125 184.349 133.698L186.546 147.725Z" fill="url(#paint2_linear_260_1796)" fill-opacity="0.4" shape-rendering="crispEdges"/>
<path d="M252.201 149.19H239.075L238.512 140.176C236.522 143.481 233.874 145.998 230.569 147.725C227.302 149.453 223.471 150.316 219.077 150.316C211.867 150.316 206.214 148.101 202.121 143.669C198.027 139.238 195.981 133.154 195.981 125.417V92.8566H212.148V121.699C212.148 126.093 213.181 129.548 215.247 132.064C217.35 134.543 220.204 135.782 223.809 135.782C227.565 135.782 230.532 134.487 232.71 131.895C234.926 129.267 236.033 125.718 236.033 121.248V92.8566L252.201 92.8566V149.19Z" fill="url(#paint3_linear_260_1796)" fill-opacity="0.4" shape-rendering="crispEdges"/>
<path d="M283.268 149.19H267.1V92.8566H281.183L281.747 102.602C283.624 99.1847 286.178 96.5182 289.408 94.6029C292.638 92.6876 296.337 91.7299 300.506 91.7299C301.707 91.7299 302.909 91.8238 304.111 92.0116C305.35 92.1618 306.608 92.4059 307.885 92.7439L305.857 107.278C303.379 106.564 301.031 106.208 298.816 106.208C295.699 106.208 292.957 106.921 290.591 108.348C288.263 109.738 286.46 111.691 285.183 114.207C283.906 116.686 283.268 119.596 283.268 122.938V149.19Z" fill="url(#paint4_linear_260_1796)" fill-opacity="0.4" shape-rendering="crispEdges"/>
<path d="M368.358 142.88C361.372 147.838 353.73 150.316 345.43 150.316C339.271 150.316 333.732 149.002 328.812 146.373C323.93 143.707 320.061 140.101 317.207 135.557C314.391 131.013 312.982 125.887 312.982 120.178C312.982 114.733 314.259 109.869 316.813 105.588C319.404 101.307 322.916 97.9266 327.347 95.4479C331.779 92.9692 336.811 91.7299 342.445 91.7299C348.266 91.7299 353.392 93.1007 357.823 95.8422C362.255 98.5462 365.71 102.339 368.189 107.222C370.667 112.066 371.907 117.681 371.907 124.065V125.868H330.389C331.065 128.084 332.173 130.036 333.713 131.726C335.253 133.379 337.168 134.693 339.459 135.67C341.75 136.646 344.379 137.134 347.346 137.134C353.091 137.134 358.443 135.275 363.4 131.557L368.358 142.88ZM329.657 117.643H356.978C356.678 115.202 355.908 113.061 354.669 111.221C353.467 109.343 351.871 107.879 349.881 106.827C347.928 105.776 345.731 105.25 343.29 105.25C340.811 105.25 338.595 105.794 336.642 106.884C334.727 107.973 333.168 109.437 331.967 111.278C330.765 113.118 329.995 115.24 329.657 117.643Z" fill="url(#paint5_linear_260_1796)" fill-opacity="0.4" shape-rendering="crispEdges"/>
<path d="M437.364 150.316C431.58 150.316 426.397 149.058 421.816 146.542C417.234 143.988 413.629 140.514 411 136.12C408.408 131.689 407.113 126.656 407.113 121.023C407.113 115.427 408.408 110.433 411 106.039C413.629 101.607 417.234 98.1143 421.816 95.5606C426.397 93.0068 431.58 91.7299 437.364 91.7299C443.147 91.7299 448.292 93.0068 452.799 95.5606C457.343 98.1143 460.911 101.607 463.502 106.039C466.131 110.433 467.446 115.427 467.446 121.023C467.446 126.656 466.131 131.689 463.502 136.12C460.911 140.514 457.343 143.988 452.799 146.542C448.292 149.058 443.147 150.316 437.364 150.316ZM437.307 135.839C439.899 135.839 442.208 135.2 444.236 133.923C446.302 132.609 447.917 130.844 449.081 128.628C450.283 126.375 450.884 123.802 450.884 120.91C450.884 118.131 450.283 115.634 449.081 113.418C447.917 111.202 446.302 109.456 444.236 108.179C442.208 106.865 439.899 106.208 437.307 106.208C434.678 106.208 432.331 106.865 430.266 108.179C428.238 109.456 426.623 111.202 425.421 113.418C424.257 115.634 423.675 118.131 423.675 120.91C423.675 123.802 424.257 126.375 425.421 128.628C426.623 130.844 428.238 132.609 430.266 133.923C432.331 135.2 434.678 135.839 437.307 135.839Z" fill="url(#paint6_linear_260_1796)" fill-opacity="0.4" shape-rendering="crispEdges"/>
<path d="M499.639 149.19L483.471 149.19V107.278L473.613 107.278V92.8566H483.471V84.0686C483.471 80.0126 484.429 76.4073 486.344 73.2526C488.26 70.0604 490.888 67.563 494.231 65.7603C497.611 63.9201 501.441 63 505.723 63C508.427 63 511.187 63.3943 514.004 64.183C516.82 64.9341 519.6 66.1359 522.341 67.7883L516.201 80.3506C514.999 79.3742 513.722 78.6606 512.37 78.21C511.056 77.7217 509.741 77.4776 508.427 77.4776C505.948 77.4776 503.864 78.3414 502.174 80.0689C500.484 81.7965 499.639 84.1813 499.639 87.2233V92.8566H516.482V107.278H499.639V149.19Z" fill="url(#paint7_linear_260_1796)" fill-opacity="0.4" shape-rendering="crispEdges"/>
<path d="M636.076 149.19H616.134L576.644 91.5046V149.19H559.293V64.69H579.235L618.725 122.488V64.69H636.076V149.19Z" fill="url(#paint8_linear_260_1796)" fill-opacity="0.4" shape-rendering="crispEdges"/>
<path d="M651.031 149.19V64.69L703.871 64.69V79.8436H668.381V99.0532H701.562V114.263H668.381V149.19H651.031Z" fill="url(#paint9_linear_260_1796)" fill-opacity="0.4" shape-rendering="crispEdges"/>
<path d="M755.838 149.19H738.487V79.8436H713.588V64.69L780.793 64.69V79.8436L755.838 79.8436V149.19Z" fill="url(#paint10_linear_260_1796)" fill-opacity="0.4" shape-rendering="crispEdges"/>
</g>
<defs>
<filter id="filter0_d_260_1796" x="-50.9504" y="0.308203" width="901.401" height="217.924" filterUnits="userSpaceOnUse" color-interpolation-filters="sRGB">
<feFlood flood-opacity="0" result="BackgroundImageFix"/>
<feColorMatrix in="SourceAlpha" type="matrix" values="0 0 0 0 0 0 0 0 0 0 0 0 0 0 0 0 0 0 127 0" result="hardAlpha"/>
<feOffset dx="4.3536" dy="2.61216"/>
<feGaussianBlur stdDeviation="32.652"/>
<feComposite in2="hardAlpha" operator="out"/>
<feColorMatrix type="matrix" values="0 0 0 0 0.237314 0 0 0 0 0.121415 0 0 0 0 0.33776 0 0 0 1 0"/>
<feBlend mode="normal" in2="BackgroundImageFix" result="effect1_dropShadow_260_1796"/>
<feBlend mode="normal" in="SourceGraphic" in2="effect1_dropShadow_260_1796" result="shape"/>
</filter>
<linearGradient id="paint0_linear_260_1796" x1="667.697" y1="82.9384" x2="614.992" y2="271.048" gradientUnits="userSpaceOnUse">
<stop stop-color="#412756"/>
<stop offset="0.999538" stop-color="#55376F"/>
</linearGradient>
<linearGradient id="paint1_linear_260_1796" x1="667.697" y1="82.9384" x2="614.992" y2="271.048" gradientUnits="userSpaceOnUse">
<stop stop-color="#412756"/>
<stop offset="0.999538" stop-color="#55376F"/>
</linearGradient>
<linearGradient id="paint2_linear_260_1796" x1="667.697" y1="82.9384" x2="614.992" y2="271.048" gradientUnits="userSpaceOnUse">
<stop stop-color="#412756"/>
<stop offset="0.999538" stop-color="#55376F"/>
</linearGradient>
<linearGradient id="paint3_linear_260_1796" x1="667.697" y1="82.9384" x2="614.992" y2="271.048" gradientUnits="userSpaceOnUse">
<stop stop-color="#412756"/>
<stop offset="0.999538" stop-color="#55376F"/>
</linearGradient>
<linearGradient id="paint4_linear_260_1796" x1="667.697" y1="82.9384" x2="614.992" y2="271.048" gradientUnits="userSpaceOnUse">
<stop stop-color="#412756"/>
<stop offset="0.999538" stop-color="#55376F"/>
</linearGradient>
<linearGradient id="paint5_linear_260_1796" x1="667.697" y1="82.9384" x2="614.992" y2="271.048" gradientUnits="userSpaceOnUse">
<stop stop-color="#412756"/>
<stop offset="0.999538" stop-color="#55376F"/>
</linearGradient>
<linearGradient id="paint6_linear_260_1796" x1="667.697" y1="82.9384" x2="614.992" y2="271.048" gradientUnits="userSpaceOnUse">
<stop stop-color="#412756"/>
<stop offset="0.999538" stop-color="#55376F"/>
</linearGradient>
<linearGradient id="paint7_linear_260_1796" x1="667.697" y1="82.9384" x2="614.992" y2="271.048" gradientUnits="userSpaceOnUse">
<stop stop-color="#412756"/>
<stop offset="0.999538" stop-color="#55376F"/>
</linearGradient>
<linearGradient id="paint8_linear_260_1796" x1="667.697" y1="82.9384" x2="614.992" y2="271.048" gradientUnits="userSpaceOnUse">
<stop stop-color="#412756"/>
<stop offset="0.999538" stop-color="#55376F"/>
</linearGradient>
<linearGradient id="paint9_linear_260_1796" x1="667.697" y1="82.9384" x2="614.992" y2="271.048" gradientUnits="userSpaceOnUse">
<stop stop-color="#412756"/>
<stop offset="0.999538" stop-color="#55376F"/>
</linearGradient>
<linearGradient id="paint10_linear_260_1796" x1="667.697" y1="82.9384" x2="614.992" y2="271.048" gradientUnits="userSpaceOnUse">
<stop stop-color="#412756"/>
<stop offset="0.999538" stop-color="#55376F"/>
</linearGradient>
</defs>
</svg>
