<svg width="375" height="380" viewBox="0 0 375 380" fill="none" xmlns="http://www.w3.org/2000/svg">
<g opacity="0.6" filter="url(#filter0_d_260_1562)">
<path d="M-84 204.119L-84 144.477H-63.6244C-58.6199 144.477 -54.3038 145.299 -50.6762 146.942C-47.0221 148.559 -44.2154 150.879 -42.2559 153.901C-40.2965 156.896 -39.3167 160.474 -39.3167 164.636C-39.3167 168.798 -40.2965 172.403 -42.2559 175.451C-44.2154 178.473 -47.0089 180.806 -50.6365 182.449C-54.2376 184.093 -58.5272 184.915 -63.5053 184.915H-71.7667L-71.7667 204.119H-84ZM-71.7667 174.179H-64.7763C-60.6191 174.179 -57.4284 173.357 -55.2041 171.714C-52.9534 170.044 -51.8281 167.685 -51.8281 164.636C-51.8281 161.641 -52.9534 159.321 -55.2041 157.678C-57.4284 156.008 -60.6191 155.173 -64.7763 155.173H-71.7667V174.179Z" fill="url(#paint0_linear_260_1562)" fill-opacity="0.3" shape-rendering="crispEdges"/>
<path d="M-18.4852 204.119H-29.8844L-29.8844 164.358H-19.9548L-19.5576 171.237C-18.2337 168.824 -16.4331 166.942 -14.1559 165.59C-11.8787 164.239 -9.27054 163.563 -6.33138 163.563C-5.48405 163.563 -4.63673 163.629 -3.7894 163.761C-2.91559 163.867 -2.02854 164.04 -1.12826 164.278L-2.55812 174.537C-4.30573 174.033 -5.96067 173.781 -7.52293 173.781C-9.72068 173.781 -11.6536 174.285 -13.3218 175.292C-14.9635 176.273 -16.2345 177.651 -17.1348 179.427C-18.0351 181.177 -18.4852 183.231 -18.4852 185.59L-18.4852 204.119Z" fill="url(#paint1_linear_260_1562)" fill-opacity="0.3" shape-rendering="crispEdges"/>
<path d="M23.7943 204.915C19.7165 204.915 16.0624 204.027 12.832 202.25C9.60155 200.448 7.05956 197.996 5.20604 194.895C3.37899 191.767 2.46547 188.215 2.46547 184.239C2.46547 180.289 3.37899 176.763 5.20604 173.662C7.05956 170.534 9.60155 168.069 12.832 166.266C16.0624 164.464 19.7165 163.563 23.7943 163.563C27.872 163.563 31.4996 164.464 34.6771 166.266C37.8811 168.069 40.3966 170.534 42.2236 173.662C44.0771 176.763 45.0039 180.289 45.0039 184.239C45.0039 188.215 44.0771 191.767 42.2236 194.895C40.3966 197.996 37.8811 200.448 34.6771 202.25C31.4996 204.027 27.872 204.915 23.7943 204.915ZM23.7546 194.696C25.5816 194.696 27.2101 194.245 28.6399 193.344C30.0963 192.416 31.2349 191.17 32.0557 189.606C32.903 188.016 33.3267 186.2 33.3267 184.159C33.3267 182.197 32.903 180.435 32.0557 178.871C31.2349 177.307 30.0963 176.074 28.6399 175.173C27.2101 174.245 25.5816 173.781 23.7546 173.781C21.901 173.781 20.2461 174.245 18.7897 175.173C17.3599 176.074 16.2213 177.307 15.374 178.871C14.5531 180.435 14.1427 182.197 14.1427 184.159C14.1427 186.2 14.5531 188.016 15.374 189.606C16.2213 191.17 17.3599 192.416 18.7897 193.344C20.2461 194.245 21.901 194.696 23.7546 194.696Z" fill="url(#paint2_linear_260_1562)" fill-opacity="0.3" shape-rendering="crispEdges"/>
<path d="M64.5247 224H53.0858V164.358H63.0949L63.6906 169.765C65.3853 167.83 67.4109 166.319 69.7676 165.233C72.1507 164.119 74.7456 163.563 77.5524 163.563C81.2065 163.563 84.4501 164.464 87.2834 166.266C90.1167 168.042 92.3541 170.494 93.9958 173.622C95.6375 176.724 96.4584 180.262 96.4584 184.239C96.4584 188.188 95.6375 191.727 93.9958 194.855C92.3541 197.983 90.1167 200.448 87.2834 202.25C84.4501 204.027 81.2065 204.915 77.5524 204.915C74.9574 204.915 72.5479 204.451 70.3236 203.523C68.1259 202.569 66.1929 201.256 64.5247 199.586V224ZM74.6529 194.656C76.6389 194.656 78.3865 194.219 79.8958 193.344C81.4051 192.443 82.5834 191.21 83.4307 189.646C84.3045 188.056 84.7414 186.253 84.7414 184.239C84.7414 182.197 84.3045 180.395 83.4307 178.831C82.5834 177.267 81.4051 176.034 79.8958 175.133C78.3865 174.232 76.6521 173.781 74.6927 173.781C72.8391 173.781 71.171 174.192 69.6881 175.014C68.2053 175.809 67.0005 176.922 66.0738 178.354C65.1735 179.785 64.6571 181.429 64.5247 183.284V185.272C64.6571 187.075 65.1735 188.692 66.0738 190.123C66.974 191.528 68.1656 192.641 69.6484 193.463C71.1312 194.258 72.7994 194.656 74.6529 194.656Z" fill="url(#paint3_linear_260_1562)" fill-opacity="0.3" shape-rendering="crispEdges"/>
<path d="M123.367 204.915C119.289 204.915 115.635 204.027 112.405 202.25C109.174 200.448 106.632 197.996 104.779 194.895C102.952 191.767 102.038 188.215 102.038 184.239C102.038 180.289 102.952 176.763 104.779 173.662C106.632 170.534 109.174 168.069 112.405 166.266C115.635 164.464 119.289 163.563 123.367 163.563C127.445 163.563 131.072 164.464 134.25 166.266C137.454 168.069 139.969 170.534 141.796 173.662C143.65 176.763 144.576 180.289 144.576 184.239C144.576 188.215 143.65 191.767 141.796 194.895C139.969 197.996 137.454 200.448 134.25 202.25C131.072 204.027 127.445 204.915 123.367 204.915ZM123.327 194.696C125.154 194.696 126.783 194.245 128.212 193.344C129.669 192.416 130.807 191.17 131.628 189.606C132.476 188.016 132.899 186.2 132.899 184.159C132.899 182.197 132.476 180.435 131.628 178.871C130.807 177.307 129.669 176.074 128.212 175.173C126.783 174.245 125.154 173.781 123.327 173.781C121.474 173.781 119.819 174.245 118.362 175.173C116.932 176.074 115.794 177.307 114.947 178.871C114.126 180.435 113.715 182.197 113.715 184.159C113.715 186.2 114.126 188.016 114.947 189.606C115.794 191.17 116.932 192.416 118.362 193.344C119.819 194.245 121.474 194.696 123.327 194.696Z" fill="url(#paint4_linear_260_1562)" fill-opacity="0.3" shape-rendering="crispEdges"/>
<path d="M149.878 200.7L152.38 190.998C153.175 191.873 154.234 192.681 155.558 193.423C156.908 194.166 158.351 194.762 159.887 195.213C161.449 195.637 162.919 195.849 164.296 195.849C165.938 195.849 167.222 195.544 168.149 194.934C169.075 194.298 169.539 193.45 169.539 192.39C169.539 191.515 169.221 190.786 168.585 190.203C167.976 189.593 167.142 189.063 166.083 188.612C165.051 188.135 163.899 187.671 162.628 187.221C160.907 186.558 159.132 185.789 157.305 184.915C155.505 184.04 153.982 182.847 152.738 181.336C151.493 179.825 150.871 177.824 150.871 175.332C150.871 172.946 151.493 170.879 152.738 169.129C153.982 167.353 155.743 165.988 158.02 165.034C160.298 164.053 162.945 163.563 165.964 163.563C170.863 163.563 175.748 164.795 180.62 167.26L177.403 176.286C176.556 175.624 175.496 175.014 174.225 174.457C172.954 173.874 171.644 173.41 170.293 173.066C168.969 172.721 167.778 172.549 166.719 172.549C165.421 172.549 164.402 172.814 163.66 173.344C162.945 173.874 162.588 174.603 162.588 175.531C162.588 176.22 162.84 176.843 163.343 177.4C163.846 177.93 164.587 178.447 165.567 178.95C166.573 179.427 167.804 179.944 169.261 180.501C171.061 181.164 172.875 181.959 174.702 182.887C176.556 183.788 178.105 185.007 179.349 186.545C180.62 188.056 181.256 190.07 181.256 192.588C181.256 195.054 180.58 197.214 179.23 199.07C177.906 200.925 176.026 202.37 173.59 203.404C171.18 204.411 168.347 204.915 165.09 204.915C159.662 204.915 154.591 203.51 149.878 200.7Z" fill="url(#paint5_linear_260_1562)" fill-opacity="0.3" shape-rendering="crispEdges"/>
<path d="M194.739 154.855C193.23 154.855 191.959 154.325 190.926 153.264C189.894 152.204 189.377 150.918 189.377 149.408C189.377 147.897 189.894 146.624 190.926 145.59C191.959 144.53 193.23 144 194.739 144C196.275 144 197.559 144.53 198.592 145.59C199.651 146.624 200.181 147.897 200.181 149.408C200.181 150.918 199.651 152.204 198.592 153.264C197.559 154.325 196.275 154.855 194.739 154.855ZM200.459 204.119H189.06V164.358H200.459V204.119Z" fill="url(#paint6_linear_260_1562)" fill-opacity="0.3" shape-rendering="crispEdges"/>
<path d="M238.846 203.085C235.801 204.305 232.848 204.915 229.989 204.915C227.023 204.915 224.402 204.292 222.124 203.046C219.874 201.773 218.113 200.011 216.842 197.757C215.571 195.478 214.935 192.854 214.935 189.885V174.537H207.985V164.358H215.531V154.417H226.335V164.358H237.336V174.537H226.335V187.817C226.335 189.991 226.93 191.687 228.122 192.907C229.313 194.099 230.796 194.696 232.57 194.696C234.186 194.696 235.761 194.192 237.297 193.185L238.846 203.085Z" fill="url(#paint7_linear_260_1562)" fill-opacity="0.3" shape-rendering="crispEdges"/>
<path d="M250.86 154.855C249.351 154.855 248.08 154.325 247.047 153.264C246.014 152.204 245.498 150.918 245.498 149.408C245.498 147.897 246.014 146.624 247.047 145.59C248.08 144.53 249.351 144 250.86 144C252.396 144 253.68 144.53 254.713 145.59C255.772 146.624 256.301 147.897 256.301 149.408C256.301 150.918 255.772 152.204 254.713 153.264C253.68 154.325 252.396 154.855 250.86 154.855ZM256.579 204.119H245.18V164.358H256.579V204.119Z" fill="url(#paint8_linear_260_1562)" fill-opacity="0.3" shape-rendering="crispEdges"/>
<path d="M286.069 204.915C281.992 204.915 278.338 204.027 275.107 202.25C271.877 200.448 269.335 197.996 267.481 194.895C265.654 191.767 264.741 188.215 264.741 184.239C264.741 180.289 265.654 176.763 267.481 173.662C269.335 170.534 271.877 168.069 275.107 166.266C278.338 164.464 281.992 163.563 286.069 163.563C290.147 163.563 293.775 164.464 296.952 166.266C300.156 168.069 302.672 170.534 304.499 173.662C306.352 176.763 307.279 180.289 307.279 184.239C307.279 188.215 306.352 191.767 304.499 194.895C302.672 197.996 300.156 200.448 296.952 202.25C293.775 204.027 290.147 204.915 286.069 204.915ZM286.03 194.696C287.857 194.696 289.485 194.245 290.915 193.344C292.371 192.416 293.51 191.17 294.331 189.606C295.178 188.016 295.602 186.2 295.602 184.159C295.602 182.197 295.178 180.435 294.331 178.871C293.51 177.307 292.371 176.074 290.915 175.173C289.485 174.245 287.857 173.781 286.03 173.781C284.176 173.781 282.521 174.245 281.065 175.173C279.635 176.074 278.496 177.307 277.649 178.871C276.828 180.435 276.418 182.197 276.418 184.159C276.418 186.2 276.828 188.016 277.649 189.606C278.496 191.17 279.635 192.416 281.065 193.344C282.521 194.245 284.176 194.696 286.03 194.696Z" fill="url(#paint9_linear_260_1562)" fill-opacity="0.3" shape-rendering="crispEdges"/>
<path d="M355 204.119H343.601V183.761C343.601 180.66 342.859 178.235 341.377 176.485C339.92 174.709 337.921 173.821 335.379 173.821C332.731 173.821 330.626 174.749 329.064 176.604C327.528 178.433 326.76 180.925 326.76 184.08V204.119H315.361V164.358H324.576L324.973 170.72C326.403 168.387 328.27 166.611 330.573 165.392C332.877 164.172 335.591 163.563 338.715 163.563C343.773 163.563 347.745 165.127 350.631 168.254C353.544 171.356 355 175.65 355 181.137V204.119Z" fill="url(#paint10_linear_260_1562)" fill-opacity="0.3" shape-rendering="crispEdges"/>
</g>
<defs>
<filter id="filter0_d_260_1562" x="-224" y="0" width="739" height="380" filterUnits="userSpaceOnUse" color-interpolation-filters="sRGB">
<feFlood flood-opacity="0" result="BackgroundImageFix"/>
<feColorMatrix in="SourceAlpha" type="matrix" values="0 0 0 0 0 0 0 0 0 0 0 0 0 0 0 0 0 0 127 0" result="hardAlpha"/>
<feOffset dx="10" dy="6"/>
<feGaussianBlur stdDeviation="75"/>
<feComposite in2="hardAlpha" operator="out"/>
<feColorMatrix type="matrix" values="0 0 0 0 0.237314 0 0 0 0 0.121415 0 0 0 0 0.33776 0 0 0 1 0"/>
<feBlend mode="normal" in2="BackgroundImageFix" result="effect1_dropShadow_260_1562"/>
<feBlend mode="normal" in="SourceGraphic" in2="effect1_dropShadow_260_1562" result="shape"/>
</filter>
<linearGradient id="paint0_linear_260_1562" x1="293.407" y1="146.919" x2="193.745" y2="325.829" gradientUnits="userSpaceOnUse">
<stop offset="0.0264934" stop-color="#412756"/>
<stop offset="0.999538" stop-color="#55376F"/>
</linearGradient>
<linearGradient id="paint1_linear_260_1562" x1="293.407" y1="146.919" x2="193.745" y2="325.829" gradientUnits="userSpaceOnUse">
<stop offset="0.0264934" stop-color="#412756"/>
<stop offset="0.999538" stop-color="#55376F"/>
</linearGradient>
<linearGradient id="paint2_linear_260_1562" x1="293.407" y1="146.919" x2="193.745" y2="325.829" gradientUnits="userSpaceOnUse">
<stop offset="0.0264934" stop-color="#412756"/>
<stop offset="0.999538" stop-color="#55376F"/>
</linearGradient>
<linearGradient id="paint3_linear_260_1562" x1="293.407" y1="146.919" x2="193.745" y2="325.829" gradientUnits="userSpaceOnUse">
<stop offset="0.0264934" stop-color="#412756"/>
<stop offset="0.999538" stop-color="#55376F"/>
</linearGradient>
<linearGradient id="paint4_linear_260_1562" x1="293.407" y1="146.919" x2="193.745" y2="325.829" gradientUnits="userSpaceOnUse">
<stop offset="0.0264934" stop-color="#412756"/>
<stop offset="0.999538" stop-color="#55376F"/>
</linearGradient>
<linearGradient id="paint5_linear_260_1562" x1="293.407" y1="146.919" x2="193.745" y2="325.829" gradientUnits="userSpaceOnUse">
<stop offset="0.0264934" stop-color="#412756"/>
<stop offset="0.999538" stop-color="#55376F"/>
</linearGradient>
<linearGradient id="paint6_linear_260_1562" x1="293.407" y1="146.919" x2="193.745" y2="325.829" gradientUnits="userSpaceOnUse">
<stop offset="0.0264934" stop-color="#412756"/>
<stop offset="0.999538" stop-color="#55376F"/>
</linearGradient>
<linearGradient id="paint7_linear_260_1562" x1="293.407" y1="146.919" x2="193.745" y2="325.829" gradientUnits="userSpaceOnUse">
<stop offset="0.0264934" stop-color="#412756"/>
<stop offset="0.999538" stop-color="#55376F"/>
</linearGradient>
<linearGradient id="paint8_linear_260_1562" x1="293.407" y1="146.919" x2="193.745" y2="325.829" gradientUnits="userSpaceOnUse">
<stop offset="0.0264934" stop-color="#412756"/>
<stop offset="0.999538" stop-color="#55376F"/>
</linearGradient>
<linearGradient id="paint9_linear_260_1562" x1="293.407" y1="146.919" x2="193.745" y2="325.829" gradientUnits="userSpaceOnUse">
<stop offset="0.0264934" stop-color="#412756"/>
<stop offset="0.999538" stop-color="#55376F"/>
</linearGradient>
<linearGradient id="paint10_linear_260_1562" x1="293.407" y1="146.919" x2="193.745" y2="325.829" gradientUnits="userSpaceOnUse">
<stop offset="0.0264934" stop-color="#412756"/>
<stop offset="0.999538" stop-color="#55376F"/>
</linearGradient>
</defs>
</svg>
