<svg width="375" height="368" viewBox="0 0 375 368" fill="none" xmlns="http://www.w3.org/2000/svg">
<g opacity="0.6" filter="url(#filter0_d_260_1019)">
<path d="M-25.451 211.105H-40L-13.0642 144H1.57487L28.4657 211.105H13.9167L8.3764 196.7H-19.9107L-25.451 211.105ZM-15.3614 184.621H3.87207L-5.76717 159.747L-15.3614 184.621Z" fill="url(#paint0_linear_260_1019)" fill-opacity="0.3" shape-rendering="crispEdges"/>
<path d="M47.3153 211.105H35.9645L35.9645 144L48.8919 144V171.468C50.7837 169.589 52.9758 168.128 55.4682 167.084C57.9906 166.011 60.7232 165.474 63.666 165.474C67.81 165.474 71.4885 166.488 74.7016 168.516C77.9147 170.514 80.4521 173.273 82.3139 176.792C84.1757 180.282 85.1066 184.263 85.1066 188.737C85.1066 193.181 84.1757 197.162 82.3139 200.682C80.4521 204.201 77.9147 206.975 74.7016 209.003C71.4885 211.001 67.81 212 63.666 212C60.483 212 57.5401 211.389 54.8376 210.166C52.165 208.913 49.8678 207.198 47.9459 205.021L47.3153 211.105ZM60.3779 200.503C62.57 200.503 64.5218 199.996 66.2335 198.982C67.9752 197.968 69.3415 196.566 70.3324 194.776C71.3534 192.987 71.8639 190.959 71.8639 188.692C71.8639 186.455 71.3534 184.457 70.3324 182.697C69.3415 180.908 67.9752 179.506 66.2335 178.492C64.5218 177.478 62.57 176.971 60.3779 176.971C58.3059 176.971 56.4141 177.433 54.7024 178.358C53.0208 179.282 51.6695 180.55 50.6485 182.161C49.6276 183.771 49.042 185.62 48.8919 187.708L48.8919 189.676C49.042 191.764 49.6276 193.628 50.6485 195.268C51.6695 196.879 53.0208 198.161 54.7024 199.116C56.384 200.04 58.2758 200.503 60.3779 200.503Z" fill="url(#paint1_linear_260_1019)" fill-opacity="0.3" shape-rendering="crispEdges"/>
<path d="M115.667 212C111.043 212 106.899 211.001 103.236 209.003C99.5721 206.975 96.6893 204.216 94.5873 200.726C92.5153 197.207 91.4793 193.211 91.4793 188.737C91.4793 184.293 92.5153 180.326 94.5873 176.837C96.6893 173.318 99.5721 170.544 103.236 168.516C106.899 166.488 111.043 165.474 115.667 165.474C120.292 165.474 124.406 166.488 128.009 168.516C131.643 170.544 134.496 173.318 136.568 176.837C138.67 180.326 139.721 184.293 139.721 188.737C139.721 193.211 138.67 197.207 136.568 200.726C134.496 204.216 131.643 206.975 128.009 209.003C124.406 211.001 120.292 212 115.667 212ZM115.622 200.503C117.694 200.503 119.541 199.996 121.163 198.982C122.814 197.938 124.106 196.536 125.036 194.776C125.997 192.987 126.478 190.944 126.478 188.647C126.478 186.44 125.997 184.457 125.036 182.697C124.106 180.938 122.814 179.551 121.163 178.537C119.541 177.493 117.694 176.971 115.622 176.971C113.52 176.971 111.644 177.493 109.992 178.537C108.37 179.551 107.079 180.938 106.118 182.697C105.187 184.457 104.722 186.44 104.722 188.647C104.722 190.944 105.187 192.987 106.118 194.776C107.079 196.536 108.37 197.938 109.992 198.982C111.644 199.996 113.52 200.503 115.622 200.503Z" fill="url(#paint2_linear_260_1019)" fill-opacity="0.3" shape-rendering="crispEdges"/>
<path d="M192.938 211.105H182.443L181.993 203.947C180.401 206.572 178.284 208.57 175.642 209.942C173.029 211.314 169.966 212 166.453 212C160.687 212 156.168 210.24 152.895 206.721C149.622 203.202 147.985 198.37 147.985 192.226V166.368H160.912V189.274C160.912 192.763 161.738 195.507 163.39 197.505C165.071 199.474 167.354 200.458 170.236 200.458C173.239 200.458 175.612 199.429 177.353 197.371C179.125 195.283 180.011 192.465 180.011 188.916V166.368H192.938V211.105Z" fill="url(#paint3_linear_260_1019)" fill-opacity="0.3" shape-rendering="crispEdges"/>
<path d="M236.336 209.942C232.883 211.314 229.535 212 226.292 212C222.929 212 219.956 211.299 217.373 209.897C214.821 208.466 212.824 206.482 211.382 203.947C209.941 201.382 209.22 198.43 209.22 195.089V177.821L201.338 177.821V166.368H209.896V155.184L222.148 155.184V166.368H234.625V177.821H222.148V192.763C222.148 195.209 222.823 197.118 224.175 198.489C225.526 199.832 227.208 200.503 229.22 200.503C231.051 200.503 232.838 199.936 234.58 198.803L236.336 209.942Z" fill="url(#paint4_linear_260_1019)" fill-opacity="0.3" shape-rendering="crispEdges"/>
<path d="M310.656 211.105H300.161L299.71 203.947C298.119 206.572 296.002 208.57 293.359 209.942C290.747 211.314 287.684 212 284.171 212C278.405 212 273.886 210.24 270.612 206.721C267.339 203.202 265.703 198.37 265.703 192.226V166.368H278.63V189.274C278.63 192.763 279.456 195.507 281.108 197.505C282.789 199.474 285.071 200.458 287.954 200.458C290.957 200.458 293.329 199.429 295.071 197.371C296.843 195.283 297.728 192.465 297.728 188.916V166.368H310.656V211.105Z" fill="url(#paint5_linear_260_1019)" fill-opacity="0.3" shape-rendering="crispEdges"/>
<path d="M319.416 207.258L322.254 196.342C323.154 197.326 324.356 198.236 325.857 199.071C327.389 199.906 329.025 200.577 330.767 201.084C332.538 201.561 334.205 201.8 335.767 201.8C337.628 201.8 339.085 201.457 340.136 200.771C341.187 200.055 341.712 199.101 341.712 197.908C341.712 196.924 341.352 196.104 340.631 195.447C339.941 194.761 338.995 194.165 337.794 193.658C336.622 193.121 335.316 192.599 333.875 192.092C331.923 191.346 329.911 190.482 327.839 189.497C325.797 188.513 324.07 187.171 322.659 185.471C321.248 183.771 320.542 181.519 320.542 178.716C320.542 176.032 321.248 173.705 322.659 171.737C324.07 169.739 326.067 168.203 328.65 167.129C331.232 166.025 334.235 165.474 337.658 165.474C343.214 165.474 348.754 166.861 354.279 169.634L350.631 179.789C349.67 179.044 348.469 178.358 347.027 177.732C345.586 177.075 344.1 176.554 342.568 176.166C341.067 175.778 339.715 175.584 338.514 175.584C337.043 175.584 335.887 175.882 335.046 176.479C334.235 177.075 333.83 177.896 333.83 178.939C333.83 179.715 334.115 180.416 334.686 181.042C335.256 181.639 336.097 182.22 337.208 182.787C338.349 183.324 339.745 183.905 341.397 184.532C343.439 185.277 345.496 186.172 347.568 187.216C349.67 188.23 351.427 189.602 352.838 191.332C354.279 193.032 355 195.298 355 198.132C355 200.905 354.234 203.336 352.703 205.424C351.201 207.511 349.069 209.137 346.307 210.3C343.574 211.433 340.361 212 336.667 212C330.512 212 324.761 210.419 319.416 207.258Z" fill="url(#paint6_linear_260_1019)" fill-opacity="0.3" shape-rendering="crispEdges"/>
</g>
<defs>
<filter id="filter0_d_260_1019" x="-180" y="0" width="695" height="368" filterUnits="userSpaceOnUse" color-interpolation-filters="sRGB">
<feFlood flood-opacity="0" result="BackgroundImageFix"/>
<feColorMatrix in="SourceAlpha" type="matrix" values="0 0 0 0 0 0 0 0 0 0 0 0 0 0 0 0 0 0 127 0" result="hardAlpha"/>
<feOffset dx="10" dy="6"/>
<feGaussianBlur stdDeviation="75"/>
<feComposite in2="hardAlpha" operator="out"/>
<feColorMatrix type="matrix" values="0 0 0 0 0.237314 0 0 0 0 0.121415 0 0 0 0 0.33776 0 0 0 1 0"/>
<feBlend mode="normal" in2="BackgroundImageFix" result="effect1_dropShadow_260_1019"/>
<feBlend mode="normal" in="SourceGraphic" in2="effect1_dropShadow_260_1019" result="shape"/>
</filter>
<linearGradient id="paint0_linear_260_1019" x1="299.113" y1="146.747" x2="174.945" y2="323.064" gradientUnits="userSpaceOnUse">
<stop offset="0.0264934" stop-color="#412756"/>
<stop offset="0.999538" stop-color="#55376F"/>
</linearGradient>
<linearGradient id="paint1_linear_260_1019" x1="299.113" y1="146.747" x2="174.945" y2="323.064" gradientUnits="userSpaceOnUse">
<stop offset="0.0264934" stop-color="#412756"/>
<stop offset="0.999538" stop-color="#55376F"/>
</linearGradient>
<linearGradient id="paint2_linear_260_1019" x1="299.113" y1="146.747" x2="174.945" y2="323.064" gradientUnits="userSpaceOnUse">
<stop offset="0.0264934" stop-color="#412756"/>
<stop offset="0.999538" stop-color="#55376F"/>
</linearGradient>
<linearGradient id="paint3_linear_260_1019" x1="299.113" y1="146.747" x2="174.945" y2="323.064" gradientUnits="userSpaceOnUse">
<stop offset="0.0264934" stop-color="#412756"/>
<stop offset="0.999538" stop-color="#55376F"/>
</linearGradient>
<linearGradient id="paint4_linear_260_1019" x1="299.113" y1="146.747" x2="174.945" y2="323.064" gradientUnits="userSpaceOnUse">
<stop offset="0.0264934" stop-color="#412756"/>
<stop offset="0.999538" stop-color="#55376F"/>
</linearGradient>
<linearGradient id="paint5_linear_260_1019" x1="299.113" y1="146.747" x2="174.945" y2="323.064" gradientUnits="userSpaceOnUse">
<stop offset="0.0264934" stop-color="#412756"/>
<stop offset="0.999538" stop-color="#55376F"/>
</linearGradient>
<linearGradient id="paint6_linear_260_1019" x1="299.113" y1="146.747" x2="174.945" y2="323.064" gradientUnits="userSpaceOnUse">
<stop offset="0.0264934" stop-color="#412756"/>
<stop offset="0.999538" stop-color="#55376F"/>
</linearGradient>
</defs>
</svg>
