<svg width="1920" height="606" viewBox="0 0 1920 606" fill="none" xmlns="http://www.w3.org/2000/svg">
<g opacity="0.6" filter="url(#filter0_d_221_157)">
<path d="M66.5443 418H1L1 98.791L66.5443 98.791L66.5443 232.22L204.655 232.22L204.655 98.791L270.2 98.791L270.2 418H204.655L204.655 289.465H66.5443L66.5443 418Z" fill="url(#paint0_linear_221_157)" fill-opacity="0.2" shape-rendering="crispEdges"/>
<path d="M427.778 422.256C405.93 422.256 386.352 417.504 369.044 407.998C351.736 398.351 338.116 385.228 328.185 368.629C318.396 351.888 313.501 332.878 313.501 311.597C313.501 290.458 318.396 271.59 328.185 254.991C338.116 238.25 351.736 225.056 369.044 215.409C386.352 205.762 405.93 200.938 427.778 200.938C449.626 200.938 469.063 205.762 486.087 215.409C503.253 225.056 516.731 238.25 526.52 254.991C536.451 271.59 541.417 290.458 541.417 311.597C541.417 332.878 536.451 351.888 526.52 368.629C516.731 385.228 503.253 398.351 486.087 407.998C469.063 417.504 449.626 422.256 427.778 422.256ZM427.565 367.565C437.355 367.565 446.08 365.153 453.741 360.33C461.543 355.364 467.644 348.696 472.042 340.326C476.582 331.814 478.852 322.095 478.852 311.171C478.852 300.673 476.582 291.239 472.042 282.868C467.644 274.498 461.543 267.901 453.741 263.077C446.08 258.112 437.355 255.629 427.565 255.629C417.635 255.629 408.768 258.112 400.965 263.077C393.304 267.901 387.203 274.498 382.663 282.868C378.265 291.239 376.066 300.673 376.066 311.171C376.066 322.095 378.265 331.814 382.663 340.326C387.203 348.696 393.304 355.364 400.965 360.33C408.768 365.153 417.635 367.565 427.565 367.565Z" fill="url(#paint1_linear_221_157)" fill-opacity="0.2" shape-rendering="crispEdges"/>
<path d="M685.801 422.256C663.953 422.256 644.375 417.504 627.067 407.998C609.759 398.351 596.139 385.228 586.208 368.629C576.419 351.888 571.524 332.878 571.524 311.597C571.524 290.458 576.419 271.59 586.208 254.991C596.139 238.25 609.759 225.056 627.067 215.409C644.375 205.762 663.953 200.938 685.801 200.938C707.649 200.938 727.086 205.762 744.11 215.409C761.277 225.056 774.754 238.25 784.543 254.991C794.474 271.59 799.44 290.458 799.44 311.597C799.44 332.878 794.474 351.888 784.543 368.629C774.754 385.228 761.277 398.351 744.11 407.998C727.086 417.504 707.649 422.256 685.801 422.256ZM685.589 367.565C695.378 367.565 704.103 365.153 711.764 360.33C719.567 355.364 725.667 348.696 730.065 340.326C734.605 331.814 736.875 322.095 736.875 311.171C736.875 300.673 734.605 291.239 730.065 282.868C725.667 274.498 719.567 267.901 711.764 263.077C704.103 258.112 695.378 255.629 685.589 255.629C675.658 255.629 666.791 258.112 658.988 263.077C651.327 267.901 645.226 274.498 640.686 282.868C636.288 291.239 634.089 300.673 634.089 311.171C634.089 322.095 636.288 331.814 640.686 340.326C645.226 348.696 651.327 355.364 658.988 360.33C666.791 365.153 675.658 367.565 685.589 367.565Z" fill="url(#paint2_linear_221_157)" fill-opacity="0.2" shape-rendering="crispEdges"/>
<path d="M1061.93 418H1008.3L1005.11 389.058C996.033 399.273 985.109 407.36 972.34 413.318C959.714 419.277 945.882 422.256 930.843 422.256C911.407 422.256 894.028 417.504 878.706 407.998C863.526 398.351 851.538 385.157 842.742 368.416C833.946 351.676 829.548 332.736 829.548 311.597C829.548 290.316 833.946 271.377 842.742 254.778C851.538 238.037 863.526 224.914 878.706 215.409C894.028 205.762 911.407 200.938 930.843 200.938C944.747 200.938 957.657 203.492 969.574 208.599C981.633 213.564 992.061 220.516 1000.86 229.454V98.791L1061.93 98.791V418ZM946.591 367.565C956.664 367.565 965.743 365.295 973.83 360.755C982.059 356.215 988.585 350.044 993.408 342.241C998.374 334.296 1000.86 325.288 1000.86 315.215V307.554C1000.86 297.481 998.374 288.543 993.408 280.74C988.585 272.937 982.059 266.837 973.83 262.439C965.743 257.899 956.664 255.629 946.591 255.629C936.234 255.629 926.942 258.041 918.713 262.864C910.485 267.688 903.959 274.356 899.135 282.868C894.453 291.239 892.113 300.815 892.113 311.597C892.113 322.237 894.453 331.814 899.135 340.326C903.959 348.696 910.485 355.364 918.713 360.33C926.942 365.153 936.234 367.565 946.591 367.565Z" fill="url(#paint3_linear_221_157)" fill-opacity="0.2" shape-rendering="crispEdges"/>
<path d="M1179.29 418H1118.21V205.194H1171.42L1173.54 242.009C1180.64 229.099 1190.29 219.026 1202.49 211.791C1214.69 204.556 1228.66 200.938 1244.41 200.938C1248.95 200.938 1253.49 201.293 1258.03 202.002C1262.71 202.569 1267.46 203.492 1272.29 204.768L1264.63 259.672C1255.26 256.977 1246.39 255.629 1238.02 255.629C1226.25 255.629 1215.89 258.325 1206.95 263.716C1198.16 268.965 1191.35 276.342 1186.53 285.848C1181.7 295.211 1179.29 306.206 1179.29 318.832V418Z" fill="url(#paint4_linear_221_157)" fill-opacity="0.2" shape-rendering="crispEdges"/>
<path d="M1488.17 418H1434.97L1431.78 392.676C1423.98 402.04 1414.33 409.346 1402.84 414.595C1391.35 419.703 1378.72 422.256 1364.96 422.256C1350.06 422.256 1336.8 419.419 1325.16 413.744C1313.53 407.927 1304.38 399.983 1297.71 389.91C1291.04 379.695 1287.71 368.133 1287.71 355.222C1287.71 341.603 1291.33 329.615 1298.56 319.258C1305.8 308.902 1315.73 300.815 1328.36 294.998C1341.12 289.04 1355.6 286.06 1371.77 286.06C1381.27 286.06 1390.78 287.124 1400.29 289.252C1409.93 291.381 1418.87 294.36 1427.1 298.19V292.657C1427.1 284.145 1424.69 276.839 1419.86 270.738C1415.18 264.496 1408.66 259.672 1400.29 256.267C1392.06 252.863 1382.83 251.16 1372.62 251.16C1362.83 251.16 1353.11 252.721 1343.47 255.842C1333.96 258.963 1325.16 263.645 1317.08 269.887L1300.48 223.283C1314.81 215.905 1329.28 210.372 1343.89 206.684C1358.65 202.853 1372.9 200.938 1386.67 200.938C1407.38 200.938 1425.33 205.052 1440.51 213.281C1455.69 221.367 1467.39 232.859 1475.62 247.755C1483.99 262.51 1488.17 280.031 1488.17 300.318V418ZM1378.37 375.226C1386.45 375.226 1394.18 373.453 1401.56 369.906C1408.94 366.359 1414.9 361.536 1419.44 355.435C1424.12 349.335 1426.6 342.596 1426.89 335.219V333.729C1420.64 329.473 1413.69 326.21 1406.03 323.94C1398.51 321.528 1390.85 320.322 1383.05 320.322C1371.41 320.322 1361.91 322.876 1354.53 327.983C1347.15 333.09 1343.47 339.687 1343.47 347.774C1343.47 353.023 1344.96 357.776 1347.93 362.032C1351.06 366.146 1355.24 369.409 1360.49 371.821C1365.74 374.091 1371.7 375.226 1378.37 375.226Z" fill="url(#paint5_linear_221_157)" fill-opacity="0.2" shape-rendering="crispEdges"/>
<path d="M1682.57 412.467C1666.25 418.993 1650.43 422.256 1635.11 422.256C1619.22 422.256 1605.18 418.922 1592.98 412.254C1580.92 405.445 1571.48 396.01 1564.67 383.951C1557.86 371.75 1554.46 357.705 1554.46 341.816V259.672H1517.22V205.194L1557.65 205.194V151.993H1615.53V205.194L1674.48 205.194V259.672H1615.53V330.75C1615.53 342.383 1618.73 351.463 1625.11 357.989C1631.49 364.373 1639.44 367.565 1648.94 367.565C1657.6 367.565 1666.04 364.87 1674.27 359.478L1682.57 412.467Z" fill="url(#paint6_linear_221_157)" fill-opacity="0.2" shape-rendering="crispEdges"/>
<path d="M1919.1 418H1709.27V387.356L1815.46 259.885H1715.02V205.194L1911.65 205.194V231.156L1801.42 363.309H1919.1V418Z" fill="url(#paint7_linear_221_157)" fill-opacity="0.2" shape-rendering="crispEdges"/>
</g>
<defs>
<filter id="filter0_d_221_157" x="-131.411" y="0.186718" width="2199.82" height="605.192" filterUnits="userSpaceOnUse" color-interpolation-filters="sRGB">
<feFlood flood-opacity="0" result="BackgroundImageFix"/>
<feColorMatrix in="SourceAlpha" type="matrix" values="0 0 0 0 0 0 0 0 0 0 0 0 0 0 0 0 0 0 127 0" result="hardAlpha"/>
<feOffset dx="8.4518" dy="42.259"/>
<feGaussianBlur stdDeviation="70.4316"/>
<feComposite in2="hardAlpha" operator="out"/>
<feColorMatrix type="matrix" values="0 0 0 0 0.529412 0 0 0 0 0.137255 0 0 0 0 0.345098 0 0 0 1 0"/>
<feBlend mode="normal" in2="BackgroundImageFix" result="effect1_dropShadow_221_157"/>
<feBlend mode="normal" in="SourceGraphic" in2="effect1_dropShadow_221_157" result="shape"/>
</filter>
<linearGradient id="paint0_linear_221_157" x1="1543.89" y1="34.0551" x2="1375.69" y2="660.513" gradientUnits="userSpaceOnUse">
<stop offset="0.0264934" stop-color="#21152B"/>
<stop offset="0.979167" stop-color="#AE3E98"/>
</linearGradient>
<linearGradient id="paint1_linear_221_157" x1="1543.89" y1="34.0551" x2="1375.69" y2="660.513" gradientUnits="userSpaceOnUse">
<stop offset="0.0264934" stop-color="#21152B"/>
<stop offset="0.979167" stop-color="#AE3E98"/>
</linearGradient>
<linearGradient id="paint2_linear_221_157" x1="1543.89" y1="34.0551" x2="1375.69" y2="660.513" gradientUnits="userSpaceOnUse">
<stop offset="0.0264934" stop-color="#21152B"/>
<stop offset="0.979167" stop-color="#AE3E98"/>
</linearGradient>
<linearGradient id="paint3_linear_221_157" x1="1543.89" y1="34.0551" x2="1375.69" y2="660.513" gradientUnits="userSpaceOnUse">
<stop offset="0.0264934" stop-color="#21152B"/>
<stop offset="0.979167" stop-color="#AE3E98"/>
</linearGradient>
<linearGradient id="paint4_linear_221_157" x1="1543.89" y1="34.0551" x2="1375.69" y2="660.513" gradientUnits="userSpaceOnUse">
<stop offset="0.0264934" stop-color="#21152B"/>
<stop offset="0.979167" stop-color="#AE3E98"/>
</linearGradient>
<linearGradient id="paint5_linear_221_157" x1="1543.89" y1="34.0551" x2="1375.69" y2="660.513" gradientUnits="userSpaceOnUse">
<stop offset="0.0264934" stop-color="#21152B"/>
<stop offset="0.979167" stop-color="#AE3E98"/>
</linearGradient>
<linearGradient id="paint6_linear_221_157" x1="1543.89" y1="34.0551" x2="1375.69" y2="660.513" gradientUnits="userSpaceOnUse">
<stop offset="0.0264934" stop-color="#21152B"/>
<stop offset="0.979167" stop-color="#AE3E98"/>
</linearGradient>
<linearGradient id="paint7_linear_221_157" x1="1543.89" y1="34.0551" x2="1375.69" y2="660.513" gradientUnits="userSpaceOnUse">
<stop offset="0.0264934" stop-color="#21152B"/>
<stop offset="0.979167" stop-color="#AE3E98"/>
</linearGradient>
</defs>
</svg>
