<svg width="367" height="360" viewBox="0 0 367 360" fill="none" xmlns="http://www.w3.org/2000/svg">
<path d="M272.033 258L254.871 116.453C255.01 117.582 255.099 118.724 255.175 119.878V120.791C255.175 121.679 255.175 122.58 255.175 123.493C255.175 123.684 255.175 123.874 255.175 124.077C255.175 125.168 255.175 126.259 255.048 127.375C255.048 127.654 255.048 127.946 255.048 128.237C254.985 129.1 254.909 129.975 254.807 130.863C254.807 131.18 254.744 131.497 254.706 131.827C254.554 132.969 254.389 134.11 254.186 135.277V135.48C254.021 136.406 253.843 137.332 253.64 138.271C253.564 138.613 253.475 138.956 253.399 139.286C253.247 139.958 253.082 140.63 252.917 141.302C252.816 141.708 252.689 142.114 252.587 142.571C252.41 143.18 252.245 143.839 252.055 144.423C251.928 144.854 251.788 145.285 251.649 145.691C251.509 146.097 251.268 146.884 251.065 147.492C250.862 148.101 250.761 148.38 250.596 148.824C250.431 149.268 250.165 150.017 249.924 150.626C249.683 151.234 249.581 151.513 249.404 151.957C249.226 152.401 248.909 153.226 248.655 153.784L248.084 155.052L247.222 156.942C247.019 157.361 246.829 157.792 246.626 158.211C246.296 158.896 245.953 159.568 245.598 160.253C245.37 160.697 245.154 161.154 244.913 161.598C244.241 162.866 243.556 164.135 242.833 165.403C242.579 165.847 242.3 166.278 242.034 166.671C241.565 167.458 241.095 168.257 240.601 169.044C240.271 169.564 239.916 170.084 239.573 170.604C239.231 171.124 238.685 171.974 238.229 172.646L237.226 174.041C236.732 174.739 236.237 175.462 235.717 176.16C234.601 177.656 233.434 179.128 232.254 180.586L231.315 181.715C230.237 182.984 229.134 184.252 228.017 185.521L227.586 186.003C226.419 187.271 225.24 188.54 224.022 189.719L223.02 190.709C222.106 191.609 221.18 192.485 220.242 193.36L219.062 194.425C217.946 195.427 216.83 196.417 215.675 197.381L215.117 197.863C213.785 198.966 212.441 200.032 211.084 201.072C210.259 201.694 209.435 202.34 208.547 202.924L208.103 203.254C207.063 204.002 206.01 204.725 204.944 205.448L204.044 206.044C203.27 206.564 202.483 207.072 201.697 207.566L200.632 208.226L198.741 209.368L196.775 210.509L195.038 211.473L193.059 212.526L191.296 213.427L189.292 214.403L187.516 215.241L185.499 216.129L183.698 216.89L181.681 217.689C181.072 217.93 180.476 218.158 179.867 218.374C179.258 218.589 178.51 218.868 177.837 219.097C177.165 219.325 176.632 219.515 176.023 219.706L173.981 220.34L172.18 220.873L170.112 221.405L168.324 221.849L166.256 222.306L164.468 222.674L162.388 223.029L160.637 223.308L158.544 223.562L156.819 223.752C156.121 223.752 155.411 223.866 154.713 223.904C154.016 223.942 153.597 223.993 153.039 224.018H150.895C150.35 224.018 149.817 224.018 149.284 224.018C148.536 224.018 147.788 224.018 147.052 223.955H145.568C144.756 223.955 143.944 223.815 143.132 223.739C142.726 223.739 142.308 223.676 141.864 223.625C140.659 223.486 139.454 223.308 138.262 223.092C137.5 222.966 136.739 222.813 135.991 222.648C135.243 222.484 134.52 222.319 133.797 222.128L272.033 258Z" fill="url(#paint0_linear_221_765)"/>
<path d="M271.359 252.47C265.862 207.135 260.366 161.797 254.869 116.454C255.009 117.583 255.097 118.724 255.173 119.878V120.792C255.173 121.68 255.173 122.58 255.173 123.494C255.173 123.684 255.173 123.874 255.173 124.077C255.173 125.168 255.173 126.259 255.047 127.375C255.047 127.654 255.047 127.946 255.047 128.238C254.983 129.1 254.907 129.975 254.806 130.863C254.806 131.18 254.742 131.497 254.704 131.827C254.552 132.969 254.387 134.11 254.184 135.277V135.48C254.019 136.406 253.842 137.332 253.639 138.271C253.562 138.614 253.474 138.956 253.398 139.286C253.245 139.958 253.08 140.63 252.916 141.303C252.814 141.709 252.687 142.114 252.586 142.571C252.408 143.18 252.243 143.84 252.053 144.423C251.926 144.854 251.787 145.286 251.647 145.691C251.508 146.097 251.267 146.884 251.064 147.493C250.861 148.102 250.759 148.381 250.594 148.825C250.429 149.269 250.163 150.017 249.922 150.626C249.681 151.235 249.58 151.514 249.402 151.958C249.224 152.402 248.907 153.226 248.654 153.784L248.083 155.053L247.22 156.943C247.017 157.361 246.827 157.793 246.624 158.211C246.294 158.896 245.952 159.568 245.597 160.253C245.368 160.697 245.153 161.154 244.912 161.598C244.239 162.866 243.554 164.135 242.831 165.403C242.578 165.847 242.299 166.279 242.032 166.672C241.563 167.458 241.094 168.257 240.599 169.044C240.269 169.564 239.914 170.084 239.571 170.604C239.229 171.124 238.684 171.974 238.227 172.646L237.225 174.041C236.73 174.739 236.235 175.462 235.715 176.16C234.599 177.657 233.432 179.128 232.252 180.587L231.314 181.716C230.236 182.984 229.132 184.253 228.016 185.521L227.585 186.003C226.418 187.271 225.238 188.54 224.02 189.72L223.018 190.709C222.105 191.61 221.179 192.485 220.24 193.36L219.061 194.425C217.944 195.428 216.828 196.417 215.674 197.381L215.116 197.863C213.784 198.967 212.439 200.032 211.082 201.072C210.257 201.694 209.433 202.341 208.545 202.924L208.101 203.254C207.061 204.002 206.008 204.725 204.943 205.448L204.156 205.968C225.999 222.293 249.935 235.815 271.359 252.47Z" fill="url(#paint1_linear_221_765)"/>
<g filter="url(#filter0_d_221_765)">
<path d="M217.587 195.771C254.485 163.481 266.313 116.642 244.007 91.1525C221.701 65.6631 173.707 71.1762 136.809 103.466C99.9114 135.756 88.0829 182.596 110.389 208.085C132.696 233.574 180.69 228.061 217.587 195.771Z" fill="url(#paint2_linear_221_765)"/>
</g>
<path style="mix-blend-mode:overlay" opacity="0.8" d="M216.056 76.1165C178.649 69.4825 130.93 97.0206 109.506 137.624C88.0817 178.227 100.982 216.522 138.389 223.143C175.795 229.764 223.502 202.239 244.939 161.636C266.376 121.033 253.45 82.7505 216.056 76.1165ZM244.14 161.217C225.113 197.152 185.512 223.232 149.868 223.232C146.063 223.239 142.264 222.912 138.515 222.255C123.078 219.528 111.155 210.991 104.914 198.256C96.834 181.766 98.7874 159.758 110.267 138.03C129.294 102.094 168.908 76.015 204.538 76.015C208.365 76.0002 212.185 76.3228 215.955 76.9791C231.392 79.7189 243.328 88.243 249.556 100.991C257.623 117.544 255.632 139.489 244.14 161.217Z" fill="url(#paint3_linear_221_765)"/>
<defs>
<filter id="filter0_d_221_765" x="0.11792" y="0.128357" width="366.161" height="358.981" filterUnits="userSpaceOnUse" color-interpolation-filters="sRGB">
<feFlood flood-opacity="0" result="BackgroundImageFix"/>
<feColorMatrix in="SourceAlpha" type="matrix" values="0 0 0 0 0 0 0 0 0 0 0 0 0 0 0 0 0 0 127 0" result="hardAlpha"/>
<feMorphology radius="5" operator="dilate" in="SourceAlpha" result="effect1_dropShadow_221_765"/>
<feOffset dx="6" dy="30"/>
<feGaussianBlur stdDeviation="50"/>
<feComposite in2="hardAlpha" operator="out"/>
<feColorMatrix type="matrix" values="0 0 0 0 0.847059 0 0 0 0 0.313726 0 0 0 0 0.505882 0 0 0 0.3 0"/>
<feBlend mode="normal" in2="BackgroundImageFix" result="effect1_dropShadow_221_765"/>
<feBlend mode="normal" in="SourceGraphic" in2="effect1_dropShadow_221_765" result="shape"/>
</filter>
<linearGradient id="paint0_linear_221_765" x1="193.858" y1="257.709" x2="219.341" y2="208.391" gradientUnits="userSpaceOnUse">
<stop stop-color="#EFACAF"/>
<stop offset="1" stop-color="#F2E0E0"/>
</linearGradient>
<linearGradient id="paint1_linear_221_765" x1="270.611" y1="182.261" x2="236.476" y2="192.294" gradientUnits="userSpaceOnUse">
<stop stop-color="#DEB2B3" stop-opacity="0.72"/>
<stop offset="0.01" stop-color="#F9C5C6" stop-opacity="0.49"/>
<stop offset="0.15" stop-color="#F9C5C6" stop-opacity="0.31"/>
<stop offset="0.28" stop-color="#F9C5C6" stop-opacity="0.18"/>
<stop offset="0.41" stop-color="#F9C5C6" stop-opacity="0.08"/>
<stop offset="0.53" stop-color="#F9C5C6" stop-opacity="0.02"/>
<stop offset="0.62" stop-color="#F9C5C6" stop-opacity="0.21"/>
</linearGradient>
<linearGradient id="paint2_linear_221_765" x1="183.949" y1="76.1142" x2="213.342" y2="218.764" gradientUnits="userSpaceOnUse">
<stop stop-color="#FAEDF4"/>
<stop offset="0.380301" stop-color="#F2DFDF"/>
<stop offset="0.724849" stop-color="#EEE1E4"/>
<stop offset="1" stop-color="#E5E5F1"/>
</linearGradient>
<linearGradient id="paint3_linear_221_765" x1="71935.3" y1="20854.1" x2="69329.7" y2="34214.7" gradientUnits="userSpaceOnUse">
<stop stop-color="#FEEAEA"/>
<stop offset="0.09" stop-color="#FEE9E9" stop-opacity="0.97"/>
<stop offset="0.22" stop-color="#FEE6E6" stop-opacity="0.89"/>
<stop offset="0.38" stop-color="#FEE0E0" stop-opacity="0.75"/>
<stop offset="0.57" stop-color="#FED9D9" stop-opacity="0.56"/>
<stop offset="0.77" stop-color="#FDCFD0" stop-opacity="0.31"/>
<stop offset="0.99" stop-color="#FDC4C5" stop-opacity="0.02"/>
<stop offset="1" stop-color="#FDC3C4" stop-opacity="0"/>
</linearGradient>
</defs>
</svg>
