<svg width="134" height="34" viewBox="0 0 134 34" fill="none" xmlns="http://www.w3.org/2000/svg">
<path d="M48.5867 17.7936H52.8916C53.4969 17.7936 53.9874 18.2893 53.9874 18.8946C53.9874 19.5051 53.4969 19.9956 52.8916 19.9956H47.6996C47.6161 19.9956 47.5379 20.0269 47.4805 20.0791L45.9151 21.4306C45.675 21.6393 45.8211 22.0307 46.1342 22.0307H52.6307C52.6307 22.0307 52.6359 22.0307 52.6359 22.0254C52.6359 22.0202 52.6411 22.0202 52.6411 22.0202C52.7246 22.0254 52.8029 22.0307 52.8864 22.0307C54.6083 22.0307 56.0068 20.627 56.0068 18.8946C56.0068 17.2509 54.7492 15.8994 53.1421 15.769C53.1421 15.769 53.1369 15.769 53.1369 15.7638C53.1369 15.7586 53.1369 15.7586 53.1316 15.7586H48.498C47.8927 15.7586 47.4022 15.2628 47.4022 14.6575C47.4022 14.047 47.8927 13.5565 48.498 13.5565H53.6795C53.763 13.5565 53.8465 13.5252 53.9091 13.4678L55.365 12.1163C55.5946 11.9024 55.4432 11.5215 55.1354 11.5215H48.5867C48.5606 11.5215 48.5293 11.5215 48.5032 11.5215C46.7813 11.5215 45.3828 12.9251 45.3828 14.6575C45.3828 16.3899 46.7813 17.7936 48.5032 17.7936C48.5293 17.7936 48.5554 17.7936 48.5867 17.7936Z" fill="#DED8DC"/>
<path d="M73.6443 11.5164C73.4565 11.5164 73.3052 11.6678 73.3052 11.8608V21.6917C73.3052 21.8795 73.4565 22.0361 73.6443 22.0361H81.5236C81.6176 22.0361 81.7063 21.9943 81.7741 21.9265L82.7603 20.8672C82.9638 20.6481 82.8125 20.288 82.5098 20.288H75.6324C75.4446 20.288 75.2933 20.1367 75.2933 19.9436V11.8556C75.2933 11.6678 75.1419 11.5112 74.9541 11.5112H73.6443V11.5164Z" fill="#DED8DC"/>
<path fill-rule="evenodd" clip-rule="evenodd" d="M61.025 11.5164C61.025 11.5216 61.025 11.5216 61.025 11.5164C60.0179 11.5633 59.2091 12.3721 59.1621 13.3792V19.9905C59.1621 20.0166 59.1621 20.0479 59.1621 20.074C59.1621 21.1228 59.9866 21.9786 61.025 22.0203H68.1737C69.2069 21.9734 70.0365 21.1176 70.0365 20.074C70.0365 20.0479 70.0365 20.0166 70.0365 19.9905V13.3844C69.9948 12.3773 69.186 11.5633 68.1789 11.5216H61.025V11.5164ZM62.3608 13.3844C62.3556 13.3844 62.3556 13.3844 62.3608 13.3844C61.7294 13.4105 61.2232 13.9219 61.1972 14.5585V18.7173C61.1972 18.7329 61.1972 18.7538 61.1972 18.7695C61.1972 19.4269 61.7137 19.9696 62.3608 19.9957H66.8431C67.4901 19.9696 68.0067 19.4269 68.0067 18.7695C68.0067 18.7538 68.0067 18.7329 68.0067 18.7173V14.5585C67.9806 13.9219 67.4745 13.4157 66.8431 13.3844H62.3608Z" fill="#DED8DC"/>
<path fill-rule="evenodd" clip-rule="evenodd" d="M94.2122 21.6916C94.2122 21.8795 94.3635 22.036 94.5514 22.036H95.8872C96.075 22.036 96.2264 21.8847 96.2264 21.6916V13.5567C96.2264 13.5306 96.2264 13.4993 96.2264 13.4732C96.2264 12.4244 95.4071 11.5686 94.3844 11.5269H87.5226C87.4965 11.5269 87.4652 11.5269 87.4391 11.5269C86.3746 11.5269 85.5137 12.3983 85.5137 13.4784C85.5137 13.5045 85.5137 13.5358 85.5137 13.5619V21.6969C85.5137 21.8847 85.665 22.0413 85.8528 22.0413H87.1887C87.3765 22.0413 87.5278 21.8899 87.5278 21.6969V18.3103C87.5278 18.1225 87.6792 17.9659 87.867 17.9659H93.8887C94.0765 17.9659 94.2278 18.1173 94.2278 18.3103V21.6916H94.2122ZM87.5174 16.0927V14.402C87.5174 13.7445 88.0444 13.2123 88.6915 13.2123H93.0433C93.6904 13.2123 94.2174 13.7445 94.2174 14.402V16.0927C94.2174 16.2805 94.0661 16.4371 93.8782 16.4371H87.8566C87.6687 16.4371 87.5174 16.2857 87.5174 16.0927Z" fill="#DED8DC"/>
<path fill-rule="evenodd" clip-rule="evenodd" d="M122.414 22.0359C122.226 22.0359 122.075 21.8846 122.075 21.6915V18.305C122.075 18.1171 121.923 17.9606 121.735 17.9606H115.646C115.458 17.9606 115.307 18.1119 115.307 18.305V21.6915C115.307 21.8793 115.156 22.0359 114.968 22.0359H113.621C113.434 22.0359 113.282 21.8846 113.282 21.6915V13.5565C113.282 13.5304 113.282 13.4991 113.282 13.473C113.282 12.3981 114.154 11.5215 115.229 11.5215C115.255 11.5215 115.286 11.5215 115.312 11.5215H122.247C123.28 11.5684 124.11 12.4242 124.11 13.4678C124.11 13.4939 124.11 13.5252 124.11 13.5513V21.6863C124.11 21.8741 123.958 22.0307 123.771 22.0307H122.414V22.0359ZM115.307 14.4019V16.0925C115.307 16.2804 115.458 16.4369 115.646 16.4369H121.735C121.923 16.4369 122.075 16.2856 122.075 16.0925V14.4019C122.075 13.7444 121.542 13.2121 120.89 13.2121H116.491C115.834 13.2121 115.307 13.7444 115.307 14.4019Z" fill="#DED8DC"/>
<path d="M101.256 11.5164C101.355 11.5164 101.449 11.5581 101.512 11.6364L107.502 18.7799C107.706 19.0199 108.097 18.8738 108.097 18.5555V11.8607C108.097 11.6729 108.248 11.5164 108.436 11.5164H109.772C109.96 11.5164 110.111 11.6677 110.111 11.8607V21.6916C110.111 21.8794 109.96 22.036 109.772 22.036H108.113C108.107 22.036 108.102 22.0308 108.102 22.0255C108.102 22.0203 108.102 22.0203 108.097 22.0151L102.002 14.9238C101.799 14.6837 101.407 14.835 101.407 15.1481V21.6968C101.407 21.8846 101.256 22.0412 101.068 22.0412H99.722C99.5341 22.0412 99.3828 21.8899 99.3828 21.6968V11.8607C99.3828 11.6729 99.5341 11.5164 99.722 11.5164H101.256Z" fill="#DED8DC"/>
<path d="M14.3179 22.3959C14.4848 22.2289 14.7092 22.135 14.944 22.135H36.6773C37.0738 22.135 37.2721 22.6151 36.9904 22.8916L32.6959 27.1861C32.5289 27.3531 32.3045 27.447 32.0697 27.447H10.3365C9.93991 27.447 9.74162 26.9669 10.0234 26.6904L14.3179 22.3959Z" fill="#DED8DC"/>
<path d="M14.3179 6.36588C14.4848 6.19891 14.7092 6.10498 14.944 6.10498H36.6773C37.0738 6.10498 37.2721 6.58504 36.9904 6.8616L32.6959 11.1508C32.5289 11.3178 32.3045 11.4118 32.0697 11.4118H10.3365C9.93991 11.4118 9.74162 10.9317 10.0234 10.6551L14.3179 6.36588Z" fill="#DED8DC"/>
<path d="M32.6959 14.3288C32.5289 14.1618 32.3045 14.0679 32.0697 14.0679H10.3365C9.93991 14.0679 9.74162 14.5479 10.0234 14.8245L14.3179 19.1137C14.4848 19.2807 14.7092 19.3746 14.944 19.3746H36.6773C37.0738 19.3746 37.2721 18.8946 36.9904 18.618L32.6959 14.3288Z" fill="#DED8DC"/>
</svg>
